<svg width="473" height="473" viewBox="0 0 473 473" fill="none" xmlns="http://www.w3.org/2000/svg">
<ellipse rx="9.7946" ry="10.031" transform="matrix(0.707723 -0.70649 0.706489 0.707724 247.119 211.342)" fill="#CCDDE2"/>
<ellipse rx="9.79924" ry="10.0356" transform="matrix(0.707723 -0.70649 0.706489 0.707724 218.942 207.917)" fill="#CCDDE2"/>
<path d="M145.387 147.964C145.387 147.964 188.959 75.4153 276.059 103.807C363.019 132.204 342.47 240 342.414 240.283C342.794 238.308 357.859 236.426 359.454 236.194C403.894 229.626 436.949 270.96 440.226 311.696C444.296 362.221 405.215 398.007 360.706 413.415" stroke="#CCDDE2" stroke-width="5.5"/>
<path fill-rule="evenodd" clip-rule="evenodd" d="M351.458 336.068C357.874 351.87 361.512 370.064 362.069 388.17C362.194 371.687 359.834 353.474 352.376 336.254C350.001 330.783 347.137 325.538 343.819 320.581C343.805 320.544 343.781 320.512 343.749 320.489C333.515 305.192 318.037 291.61 295.175 281.917L276.082 276.355C276.082 276.355 279.104 283.132 274.891 291.902C270.677 300.672 260.298 311.524 249.271 308.965C238.243 306.406 226.122 300.533 227.948 288.625C229.774 276.716 230.562 272.484 230.562 272.484L165.347 273.119C172.337 282.525 182.011 304.14 162.468 339.077L174.608 338.613C174.608 338.613 166.506 414.851 184.876 444.416C185.006 444.652 185.149 444.88 185.293 445.083L289.01 444.652H296.218C296.248 444.576 296.271 444.497 296.288 444.416H271.21C268.349 444.414 265.607 443.273 263.59 441.245C262.356 440.013 261.441 438.498 260.924 436.832C260.604 435.794 260.447 434.712 260.461 433.625C260.471 427.666 265.293 422.835 271.252 422.815H333.292C333.598 422.815 333.922 422.815 334.219 422.852C334.273 422.861 334.328 422.861 334.381 422.852H334.474C334.402 422.866 334.329 422.877 334.257 422.888C334.13 422.907 334.003 422.926 333.876 422.959H333.844C334.144 422.965 334.444 422.953 334.743 422.922C335.234 422.891 335.723 422.833 336.208 422.75C336.481 422.708 336.75 422.657 337.019 422.597L337.302 422.546C337.542 422.494 337.782 422.426 338.022 422.359C338.125 422.33 338.228 422.3 338.331 422.273C338.669 422.166 338.994 422.041 339.318 421.916C339.643 421.791 339.967 421.661 340.291 421.499C340.325 421.497 340.357 421.486 340.384 421.466C340.672 421.322 340.959 421.174 341.228 421.03C341.806 420.71 342.36 420.349 342.887 419.95L343.351 419.575C343.762 419.251 344.152 418.901 344.519 418.527C344.863 418.185 345.188 417.825 345.492 417.447L345.541 417.386C345.831 417.027 346.119 416.669 346.378 416.274C346.61 415.931 346.841 415.575 347.027 415.213C347.152 414.995 347.277 414.749 347.384 414.527C347.39 414.518 347.396 414.51 347.403 414.502C347.432 414.463 347.458 414.429 347.458 414.383C347.551 414.203 347.635 414.017 347.708 413.827C347.932 413.334 348.125 412.828 348.288 412.311C348.431 411.848 348.556 411.356 348.663 410.87C348.719 410.619 348.77 410.364 348.807 410.114C348.881 409.65 348.932 409.187 348.969 408.691C348.969 408.547 348.978 408.399 348.987 408.251C348.997 408.102 349.006 407.954 349.006 407.81C349.009 406.264 348.778 404.726 348.32 403.249C348.26 403.01 348.182 402.777 348.088 402.549C348.013 402.308 347.922 402.073 347.815 401.844C347.044 400.048 345.943 398.411 344.57 397.019C344.405 396.841 344.23 396.673 344.046 396.514C343.516 396.014 342.944 395.561 342.336 395.16C342.258 395.112 342.182 395.06 342.104 395.008L342.104 395.008L342.104 395.008C341.982 394.926 341.857 394.843 341.724 394.766C340.049 393.72 338.181 393.022 336.231 392.713C335.474 392.583 334.708 392.517 333.941 392.513L324.285 392.458L310.161 392.388H309.74C309.322 392.351 308.91 392.333 308.474 392.333H306.351C306.495 378.658 304.033 368.317 300.691 360.626L300.691 360.626C300.749 360.513 316.793 328.968 351.458 336.068ZM352.696 444.397C352.696 444.397 353.651 441.751 354.967 437.12C354.08 439.611 353.094 442.036 352.01 444.397H352.696ZM333.292 444.397C333.699 444.397 334.102 444.384 334.504 444.349C334.458 444.353 334.413 444.357 334.371 444.36C334.046 444.387 333.92 444.397 335.257 444.397H333.292Z" fill="#353642"/>
<path d="M233.719 254.352C233.719 254.352 232.152 263.863 230.53 272.476C225.894 272.527 221.259 272.564 216.675 272.601C214.357 259.557 216.874 249.341 219.864 242.531C223.632 251.125 229.325 253.74 233.719 254.352Z" fill="#3FBDF1"/>
<path d="M309.906 288.671C300.481 283.597 290.435 279.771 280.022 277.292L276.61 276.703C276.61 276.703 274.07 270.927 274.056 270.909C272.865 267.882 270.89 263.863 270.278 260.674C269.533 256.906 269.351 253.049 269.74 249.229C270.408 243.555 273.05 231.554 277.824 227.772C281.806 224.638 283.447 225.296 285.705 220.397C287.327 216.902 287.985 211.028 284.833 208.451C281.338 205.624 279.846 207.061 275.664 207.496C259.774 209.072 250.693 197.637 244.853 184.421C243.926 182.275 242.962 180.008 241.446 178.182C239.708 176.078 237.302 175.605 235.332 173.904C234.493 173.171 233.918 171.975 234.321 170.937C234.559 170.441 234.904 170.004 235.332 169.658C239.055 166.228 243.526 163.712 248.39 162.31C256.083 160.086 264.213 159.832 272.03 161.573C280.189 164.276 287.522 169.393 292.458 177.213C299.268 188.018 300.909 199.227 297.094 210.398C293.186 221.838 288.824 235.276 296.167 246.285C305.943 260.91 311.834 271.196 309.906 288.671Z" fill="#3FBDF1"/>
<path d="M230.548 272.476C225.913 272.527 221.277 272.564 216.693 272.601C181.761 272.782 148.325 272.295 113.282 278.58" stroke="black" stroke-width="5.5"/>
<path d="M276.059 276.365C277.389 276.657 278.705 276.963 280.022 277.292C285.154 278.533 290.206 280.081 295.152 281.928C300.226 283.816 305.157 286.068 309.906 288.668C309.917 288.658 309.933 288.658 309.943 288.668C317.415 292.716 324.321 297.731 330.483 303.584C335.635 308.604 340.089 314.293 343.726 320.499C343.758 320.522 343.782 320.555 343.796 320.592C346.746 325.545 349.308 330.72 351.458 336.069C357.873 351.871 361.512 370.065 362.068 388.171C362.574 405.271 360.321 422.297 354.99 437.121C354.103 439.612 353.117 442.038 352.033 444.399C351.963 444.579 351.87 444.742 351.801 444.922" stroke="black" stroke-width="5.5"/>
<path d="M296.199 444.69C296.199 444.69 296.199 444.653 296.199 444.635C296.229 444.558 296.252 444.479 296.269 444.398" stroke="black" stroke-width="5.5"/>
<path d="M283.967 340.449C283.967 340.449 294.053 345.349 300.682 360.646C304.015 368.336 306.486 378.677 306.342 392.352V392.389C306.268 401.108 305.118 411.176 302.448 422.779V422.843" stroke="black" stroke-width="5.5"/>
<path d="M93.0762 146.254C94.8562 139.519 97.7116 132.575 99.8578 129.655C103.232 125.112 107.636 120.783 113.3 121.172C116.939 121.408 120.513 123.42 120.675 127.406C120.828 131.731 116.267 136.534 114.802 140.599C113.412 144.52 112.777 149.086 113.509 153.212C114.241 157.337 117.945 160.559 121.941 161.444C123.456 161.843 125.068 161.625 126.423 160.837C130.336 158.362 129.515 151.77 129.357 147.881C129.172 143.519 129.177 138.587 132.899 135.602C135.634 133.409 139.782 134.865 141.799 137.275C145.303 141.447 145.475 147.728 145.651 152.864C146.175 168.337 143.426 183.17 134.415 196.196C129.779 202.922 125.005 208.957 123.127 217.208C117.287 242.851 116.638 260.628 113.282 286.67" stroke="black" stroke-width="5.5"/>
<path d="M184.037 445.093C166.126 394.187 174.608 338.572 174.608 338.572L78.396 341.622C70.108 341.884 62.1122 338.546 56.4706 332.469C50.829 326.392 48.0938 318.171 48.9704 309.925L72.5368 223.985L77.6358 205.652C79.2617 199.883 78.8892 193.734 76.5789 188.204L74.1777 182.475C74.1777 182.475 69.8251 173.598 79.5826 174.432C84.8299 174.896 90.0355 177.125 94.4391 179.925C97.8971 182.127 103.172 186.387 101.541 191.11C99.6122 196.673 92.0519 198.064 87.6111 194.935" stroke="black" stroke-width="5.5"/>
<path d="M76.3377 174.386C76.3377 174.386 68.0959 155.845 90.7074 160.643C113.319 165.44 118.733 190.147 101.475 187.366" stroke="black" stroke-width="5.5"/>
<path d="M83.7915 159.58C83.7915 159.58 76.5603 150.796 87.37 146.601C98.1798 142.406 137.432 162.218 112.253 181.733" stroke="black" stroke-width="5.5"/>
<path d="M240.209 253.935C238.11 254.51 235.916 254.652 233.761 254.352C229.348 253.74 223.656 251.107 219.905 242.531C219.127 240.779 218.494 238.965 218.014 237.108C216.104 230.011 215.27 220.138 216.387 206.371C216.605 203.724 216.93 201.035 217.379 198.351C218.123 193.683 219.323 189.098 220.962 184.663C220.962 184.663 220.962 184.626 220.999 184.607C225.088 173.798 232.277 164.675 244.366 161.166C253.433 158.551 263.071 158.69 272.058 161.565C280.217 164.267 287.55 169.385 292.487 177.205C299.296 188.01 300.937 199.218 297.122 210.39C293.214 221.83 288.852 235.268 296.195 246.277C305.957 260.925 311.849 271.211 309.957 288.686" stroke="black" stroke-width="5.5"/>
<path d="M212.985 273.143C209.434 256.117 214.227 243.704 217.991 237.107" stroke="black" stroke-width="5.5"/>
<path d="M217.379 198.333C217.379 198.333 225.152 190.207 234.159 203.042" stroke="black" stroke-width="5.5"/>
<path fill-rule="evenodd" clip-rule="evenodd" d="M237.172 239.249C240.459 241.377 244.909 240.056 247.328 236.779C249.957 233.223 251.009 228.477 251.579 224.17C251.616 223.86 251.658 223.554 251.686 223.243C247.676 229.543 239.893 231.054 233.042 231.712C233.302 233.772 234.068 235.736 235.272 237.427C235.787 238.147 236.431 238.765 237.172 239.249V239.249Z" stroke="black" stroke-width="5.5" stroke-linecap="round" stroke-linejoin="round"/>
<path d="M272.869 267.609L272.851 267.591" stroke="black" stroke-width="5.5"/>
<path d="M242.29 195.835C242.29 195.835 244.932 191.556 253.961 194.708C262.991 197.86 263.098 203.01 263.098 203.01" stroke="black" stroke-width="5.5"/>
<path d="M221.764 206.473C221.764 206.473 225.936 204.363 229.204 206.473" stroke="black" stroke-width="5.5"/>
<path d="M244.246 208.415C244.246 208.415 248.417 206.306 251.662 208.415" stroke="black" stroke-width="5.5"/>
<path d="M233.719 254.352C233.719 254.352 232.152 263.864 230.53 272.476C230.293 273.7 230.066 274.905 229.862 276.096C228.801 281.895 227.953 287.05 227.915 288.612C227.647 301.591 239.916 309.077 251.769 308.952C268.401 308.771 278.126 293.298 276.559 277.802C275.535 274.975 274.487 272.147 273.463 269.319C272.146 265.695 270.436 262.167 269.694 258.347C269.039 254.585 268.968 250.743 269.481 246.958C270.149 241.303 271.247 232.871 276.022 229.089C280.003 225.955 284.161 223.897 286.433 218.998C288.055 215.502 287.981 211.002 284.829 208.424C281.334 205.597 275.804 205.94 271.623 206.352C244.654 209.11 240.167 181.812 232.871 177.979C226.891 174.822 222.404 181.905 220.999 184.533L220.944 184.645C220.942 184.671 220.93 184.696 220.911 184.714C220.656 185.178 220.531 185.488 220.531 185.488" stroke="black" stroke-width="5.5"/>
<path d="M233.028 209.615C233.028 209.615 230.21 218.84 230.428 220.221C230.645 221.602 233.932 220.638 233.932 220.638" stroke="black" stroke-width="5.5"/>
<ellipse cx="247.119" cy="211.343" rx="11.0462" ry="11.315" transform="rotate(-44.95 247.119 211.343)" stroke="black" stroke-width="5.5"/>
<ellipse cx="218.942" cy="207.918" rx="11.0462" ry="11.315" transform="rotate(-44.95 218.942 207.918)" stroke="black" stroke-width="5.5"/>
<path fill-rule="evenodd" clip-rule="evenodd" d="M209.151 206.713C209.616 201.793 213.753 198.038 218.696 198.05H218.71C219.112 198.052 219.515 198.076 219.915 198.124C225.344 198.795 229.26 203.653 228.764 209.101C228.299 214.026 224.153 217.784 219.206 217.764C218.803 217.762 218.4 217.738 218 217.69C212.571 217.019 208.655 212.161 209.151 206.713ZM225.24 202.198C223.562 200.36 221.184 199.318 218.696 199.329C214.407 199.312 210.813 202.569 210.408 206.839C210.17 209.316 210.993 211.778 212.671 213.616C214.349 215.454 216.726 216.496 219.215 216.485C223.504 216.502 227.098 213.245 227.503 208.975C227.74 206.498 226.918 204.036 225.24 202.198Z" fill="white"/>
<path d="M235.986 209.981L230.071 209.263" stroke="black" stroke-width="5.5"/>
<path fill-rule="evenodd" clip-rule="evenodd" d="M102.922 78.8042C103.993 65.3987 115.118 54.626 128.56 53.9399H128.565C139.487 53.3737 149.684 59.4134 154.436 69.2642C159.189 79.115 157.57 90.8551 150.328 99.0517C150.27 99.1144 150.215 99.181 150.166 99.251C148.213 101.402 145.934 103.232 143.412 104.674C142.78 105.021 142.193 105.445 141.665 105.935C134.297 109.626 125.617 109.612 118.26 105.898C117.705 105.424 117.108 105.002 116.476 104.637C114.053 103.253 111.863 101.497 109.986 99.4318C104.84 93.8528 102.276 86.367 102.922 78.8042ZM145.262 96.5485C145.293 96.4925 145.336 96.4436 145.387 96.4048L145.382 96.4141C151.241 89.7807 152.294 80.1791 148.012 72.4337C143.73 64.6882 135.039 60.4734 126.306 61.907C117.572 63.3406 110.685 70.1127 109.104 78.8206C107.522 87.5285 111.59 96.2896 119.262 100.702C119.753 100.992 120.218 101.324 120.652 101.694C126.333 104.537 133.022 104.537 138.703 101.694C139.104 101.313 139.553 100.986 140.038 100.72C141.986 99.6108 143.749 98.2031 145.262 96.5485Z" fill="#3FBDF1"/>
<path d="M141.655 105.94C139.498 107.898 138.271 110.679 138.281 113.593V114.835C138.281 119.174 135.138 123.063 130.864 123.499C128.528 123.738 126.2 122.979 124.455 121.409C122.709 119.839 121.708 117.605 121.7 115.257V113.593C121.695 110.663 120.452 107.872 118.279 105.907C125.635 109.61 134.307 109.622 141.674 105.94H141.655Z" fill="#353642"/>
<path fill-rule="evenodd" clip-rule="evenodd" d="M141.655 105.94C139.498 107.898 138.271 110.679 138.281 113.593V114.835C138.281 119.174 135.138 123.063 130.864 123.499C128.528 123.738 126.2 122.979 124.455 121.409C122.709 119.839 121.708 117.605 121.7 115.257V113.593C121.695 110.663 120.452 107.872 118.279 105.907C125.635 109.61 134.307 109.622 141.674 105.94H141.655Z" stroke="black" stroke-width="5.5"/>
<path fill-rule="evenodd" clip-rule="evenodd" d="M157.133 81.0615C157.147 87.6941 154.722 94.1003 150.319 99.0608C150.264 99.1207 150.213 99.1842 150.166 99.2509C148.21 101.406 145.926 103.238 143.398 104.679C142.77 105.03 142.185 105.453 141.655 105.94C134.289 109.622 125.616 109.61 118.26 105.907C117.706 105.426 117.107 104.999 116.471 104.633C107.331 99.3784 102.051 89.3153 102.922 78.8087C104.095 64.2735 116.541 53.2611 131.111 53.8666C145.681 54.4721 157.17 66.4791 157.133 81.0615V81.0615Z" stroke="black" stroke-width="5.5"/>
<path d="M122.307 108.693L116.086 88.0752L114.529 82.2346C114.529 81.8736 114.771 81.5575 115.12 81.4641C115.468 81.3707 115.836 81.5232 116.017 81.8359C117.407 84.2927 119.605 87.3752 121.792 87.2964C125.422 87.1666 122.441 76.1483 119.475 77.3025C116.508 78.4567 122.196 85.7389 128.055 86.6475C133.914 87.556 132.31 77.7058 128.055 77.3164C123.8 76.927 126.734 85.2244 134.382 86.6475C142.031 88.0705 140.603 79.648 138.531 77.9654C136.459 76.2827 137.103 85.9985 141.906 87.556C143.426 88.052 144.636 86.9905 145.229 85.6694C145.572 84.8999 145.396 81.0062 144.691 82.2067C143.254 84.6681 142.972 87.7414 142.267 90.4578C140.77 96.2057 138.48 101.708 137.168 107.507" stroke="black" stroke-width="5.5"/>
<path d="M81.4229 445.093C84.7047 443.554 387.359 445.093 387.359 445.093" stroke="black" stroke-width="5.5"/>
<path d="M129.96 44.2377L129.692 27.9072" stroke="black" stroke-width="7.34"/>
<path d="M98.815 59.4275L87.5093 47.6396" stroke="black" stroke-width="7.34"/>
<path d="M161.221 60.1603L172.777 48.6182" stroke="black" stroke-width="7.34"/>
<path d="M334.464 422.815L334.858 422.852C334.645 422.889 334.395 422.926 334.177 422.977H333.843L302.457 422.815H298.911L246.179 422.546C245.979 422.546 245.78 422.546 245.581 422.546C245.533 422.555 245.485 422.555 245.437 422.546C245.437 422.546 245.437 422.546 245.405 422.546C245.073 422.549 244.741 422.526 244.413 422.477C247.233 422.158 249.905 421.047 252.121 419.274C252.469 418.981 252.826 418.703 253.15 418.388L253.187 418.351C253.263 418.29 253.334 418.223 253.401 418.152C256.081 415.501 257.685 411.953 257.906 408.19C257.906 408.01 257.906 407.81 257.906 407.629V407.342C257.873 400.101 252.768 393.876 245.673 392.425C245.663 392.416 245.647 392.416 245.636 392.425C245.293 392.337 244.899 392.282 244.538 392.226L245.312 392.175C245.438 392.166 245.565 392.166 245.692 392.175H246.304L290.855 392.407L299.055 392.444L306.332 392.481H309.721H310.133H310.277C318.06 393.265 323.989 399.807 324.007 407.629C324.007 408.348 323.952 409.065 323.845 409.776C322.76 417.057 316.633 422.527 309.276 422.783C309.113 422.783 308.951 422.783 308.812 422.783H335.28C334.896 422.796 334.645 422.796 334.464 422.815Z" fill="white"/>
<path d="M263.585 441.237C265.607 443.27 268.357 444.411 271.224 444.408H245.368C240.417 444.408 237.729 443.202 235.768 441.237C233.742 439.21 232.602 436.463 232.597 433.598C232.597 427.674 237.46 422.807 245.368 422.807H271.224C266.854 422.8 262.911 425.429 261.238 429.466C259.565 433.503 260.491 438.15 263.585 441.237Z" fill="#D7E8F0"/>
<path d="M349.057 407.848C349.057 408.136 349.057 408.442 349.02 408.729C348.983 409.216 348.932 409.684 348.858 410.152C348.821 410.402 348.77 410.657 348.714 410.908C348.607 411.371 348.482 411.881 348.339 412.349C348.176 412.866 347.983 413.372 347.759 413.865C347.686 414.055 347.602 414.241 347.509 414.421C347.509 414.477 347.472 414.514 347.435 414.565C347.328 414.801 347.203 415.029 347.078 415.251C346.878 415.613 346.661 415.97 346.429 416.313C346.155 416.73 345.849 417.105 345.543 417.485C345.239 417.863 344.914 418.223 344.57 418.565C344.203 418.939 343.813 419.289 343.402 419.613L342.938 419.988C342.411 420.387 341.857 420.748 341.279 421.068C341.01 421.212 340.723 421.36 340.435 421.504C340.408 421.524 340.376 421.535 340.342 421.537C340.018 421.699 339.694 421.829 339.369 421.954C339.045 422.079 338.72 422.204 338.382 422.311C338.039 422.403 337.696 422.51 337.353 422.584C336.511 422.777 335.655 422.902 334.794 422.96C334.613 422.96 334.437 422.96 334.256 422.96H333.964C334.163 422.909 334.363 422.89 334.562 422.853C334.585 422.845 334.609 422.845 334.632 422.853C334.541 422.851 334.451 422.838 334.363 422.816C334.423 422.807 334.484 422.807 334.544 422.816H335.336H308.812H309.276C312.538 422.641 315.657 421.421 318.171 419.335C318.55 419.025 318.912 418.696 319.256 418.347C319.543 418.068 319.814 417.772 320.067 417.462C320.261 417.247 320.44 417.019 320.605 416.781C320.712 416.651 320.804 416.526 320.892 416.401C321.064 416.171 321.219 415.929 321.356 415.677C321.567 415.384 321.754 415.074 321.917 414.75C322.09 414.441 322.245 414.123 322.38 413.795C322.45 413.652 322.505 413.49 322.598 413.332C322.723 413.007 322.83 412.683 322.937 412.359C323.085 411.895 323.229 411.404 323.335 410.922C323.4 410.661 323.448 410.396 323.479 410.129C323.5 410.064 323.512 409.997 323.516 409.93C323.537 409.878 323.549 409.823 323.553 409.767C323.553 409.587 323.604 409.424 323.623 409.244C323.623 409.206 323.623 409.174 323.623 409.137C323.69 408.635 323.721 408.128 323.715 407.621C323.721 407.387 323.709 407.153 323.678 406.921V406.759C323.678 406.529 323.66 406.3 323.623 406.073C323.5 404.822 323.215 403.593 322.774 402.416C322.53 401.709 322.22 401.028 321.847 400.381C321.507 399.729 321.11 399.108 320.661 398.526C320.544 398.357 320.417 398.194 320.28 398.04C320.225 397.984 320.174 397.91 320.1 397.84C319.859 397.525 319.594 397.229 319.307 396.955C319.094 396.742 318.843 396.524 318.626 396.292C318.408 396.06 318.046 395.787 317.74 395.569C317.434 395.351 317.235 395.194 316.966 395.013C316.567 394.722 316.145 394.464 315.705 394.239C315.296 394 314.868 393.794 314.426 393.622C313.914 393.403 313.391 393.211 312.859 393.047C312.678 392.98 312.49 392.932 312.298 392.904C311.802 392.762 311.297 392.654 310.787 392.579C310.532 392.524 310.282 392.505 310.013 392.473H309.976C309.941 392.482 309.904 392.482 309.869 392.473H310.138L324.262 392.542L333.918 392.598C334.685 392.601 335.451 392.668 336.208 392.797C338.171 393.102 340.052 393.8 341.738 394.851C341.956 394.976 342.15 395.119 342.35 395.245C342.958 395.645 343.53 396.098 344.06 396.598C344.244 396.757 344.418 396.926 344.584 397.103C345.957 398.495 347.058 400.132 347.829 401.929C347.936 402.157 348.027 402.393 348.102 402.633C348.196 402.861 348.273 403.095 348.334 403.333C348.8 404.794 349.044 406.316 349.057 407.848Z" fill="#3FBDF1"/>
<path fill-rule="evenodd" clip-rule="evenodd" d="M349.057 407.848C349.057 408.135 349.057 408.441 349.02 408.728C348.982 409.215 348.931 409.683 348.857 410.151C348.82 410.402 348.769 410.657 348.714 410.907C348.607 411.371 348.482 411.88 348.338 412.349C348.176 412.865 347.982 413.371 347.759 413.864C347.687 414.058 347.597 414.244 347.49 414.421C347.49 414.476 347.453 414.513 347.416 414.564C347.309 414.801 347.184 415.028 347.059 415.25C346.859 415.612 346.642 415.969 346.41 416.312C346.136 416.729 345.83 417.105 345.524 417.485C345.213 417.862 344.882 418.223 344.532 418.565C344.166 418.938 343.775 419.288 343.364 419.612L342.901 419.988C342.374 420.386 341.819 420.747 341.241 421.068C340.972 421.212 340.685 421.36 340.398 421.504C340.371 421.523 340.338 421.535 340.305 421.536C339.98 421.698 339.656 421.828 339.332 421.953C339.007 422.078 338.683 422.204 338.344 422.31C338.001 422.403 337.658 422.509 337.315 422.584L337.032 422.635C336.763 422.695 336.495 422.746 336.221 422.788C335.736 422.871 335.247 422.928 334.756 422.959C334.458 422.99 334.157 423.003 333.857 422.996C333.857 422.996 333.801 422.996 333.783 422.996L302.448 422.843L295.063 422.806L245.845 422.556C245.663 422.553 245.482 422.54 245.302 422.519C244.89 422.519 244.491 422.482 244.079 422.449C251.437 421.572 257.116 415.559 257.572 408.163C257.572 407.982 257.572 407.783 257.572 407.583V407.389C257.581 400.107 252.456 393.829 245.321 392.379C244.959 392.305 244.598 392.254 244.222 392.199C244.581 392.157 244.941 392.134 245.302 392.129C245.429 392.12 245.556 392.12 245.682 392.129H245.988L295.207 392.379L306.332 392.435H309.971H310.277L333.917 392.56C334.693 392.563 335.468 392.624 336.235 392.741C338.194 393.062 340.071 393.76 341.765 394.794C341.983 394.92 342.178 395.063 342.377 395.188C342.978 395.6 343.549 396.052 344.087 396.542C344.268 396.704 344.43 396.866 344.611 397.047C345.984 398.439 347.085 400.076 347.856 401.873L348.13 402.577C348.221 402.806 348.298 403.039 348.361 403.277C348.823 404.757 349.058 406.298 349.057 407.848V407.848Z" stroke="black" stroke-width="5.5" stroke-linecap="square" stroke-linejoin="round"/>
<path fill-rule="evenodd" clip-rule="evenodd" d="M323.692 407.574C323.695 408.08 323.67 408.586 323.618 409.09V409.196C323.581 409.433 323.548 409.66 323.511 409.882C323.507 409.95 323.495 410.017 323.474 410.081C323.443 410.349 323.395 410.613 323.33 410.874C323.224 411.338 323.08 411.843 322.932 412.311C322.825 412.636 322.718 412.96 322.593 413.285C322.501 413.447 322.445 413.609 322.375 413.748C322.24 414.075 322.085 414.394 321.912 414.703C321.749 415.026 321.562 415.336 321.351 415.63C321.214 415.882 321.059 416.123 320.887 416.353C320.799 416.478 320.707 416.603 320.6 416.733C320.436 416.972 320.256 417.199 320.062 417.415C319.809 417.725 319.538 418.021 319.251 418.3C318.906 418.641 318.544 418.964 318.167 419.269C315.658 421.366 312.54 422.598 309.276 422.782C309.114 422.782 308.951 422.782 308.812 422.782H245.915C245.34 422.782 244.746 422.75 244.148 422.694C244.536 422.648 244.922 422.581 245.303 422.495C245.333 422.506 245.365 422.506 245.395 422.495H245.428C248.35 421.885 251.031 420.435 253.141 418.323L253.178 418.286C255.861 415.575 257.429 411.956 257.573 408.144C257.573 407.963 257.573 407.764 257.573 407.564V407.546C257.513 399.86 251.759 393.412 244.13 392.481C244.529 392.43 244.923 392.411 245.321 392.393C245.422 392.374 245.526 392.374 245.627 392.393C245.638 392.383 245.654 392.383 245.664 392.393C245.741 392.384 245.819 392.384 245.896 392.393H308.465C308.9 392.393 309.313 392.393 309.73 392.448H309.874C309.909 392.458 309.945 392.458 309.98 392.448H310.055L310.792 392.555C311.302 392.63 311.807 392.738 312.303 392.88C312.484 392.917 312.683 392.968 312.864 393.023C313.396 393.187 313.919 393.379 314.43 393.598C314.861 393.779 315.297 393.997 315.71 394.215C316.146 394.446 316.567 394.705 316.971 394.989C317.239 395.169 317.494 395.346 317.745 395.545C317.995 395.744 318.338 396.008 318.63 396.268C318.922 396.528 319.094 396.732 319.311 396.931C319.585 397.223 319.854 397.51 320.104 397.816C320.178 397.886 320.229 397.96 320.285 398.016L320.665 398.502C321.099 399.095 321.495 399.714 321.852 400.356C322.202 401.015 322.511 401.695 322.779 402.391C323.204 403.573 323.489 404.801 323.627 406.049C323.627 406.285 323.664 406.512 323.683 406.735V406.897C323.692 407.106 323.692 407.342 323.692 407.574V407.574Z" stroke="black" stroke-width="5.5" stroke-linecap="square" stroke-linejoin="round"/>
<path fill-rule="evenodd" clip-rule="evenodd" d="M335.257 444.398H245.358C243.355 444.452 241.356 444.167 239.448 443.554C239.068 443.411 238.711 443.267 238.368 443.091C238.025 442.91 237.719 442.729 237.413 442.548C237.107 442.368 236.838 442.136 236.565 441.918C236.296 441.682 236.046 441.454 235.809 441.213C234.575 439.981 233.661 438.466 233.144 436.801C232.816 435.763 232.651 434.681 232.657 433.593C232.654 433.171 232.678 432.75 232.731 432.332C232.8 431.745 232.925 431.166 233.107 430.603C233.358 429.713 233.747 428.869 234.261 428.1C234.554 427.598 234.904 427.132 235.304 426.709C235.549 426.436 235.809 426.176 236.083 425.931C238.28 423.97 241.469 422.76 245.414 422.76H335.257C334.895 422.76 334.645 422.76 334.464 422.76C334.404 422.751 334.343 422.751 334.284 422.76C334.103 422.76 334.14 422.76 334.228 422.76C334.238 422.769 334.254 422.769 334.265 422.76C334.306 422.769 334.349 422.769 334.39 422.76H334.483C334.284 422.797 334.084 422.816 333.885 422.867H333.843C333.843 422.867 333.788 422.867 333.769 422.867C328.703 423.874 325.049 428.312 325.031 433.477C325.061 438.942 329.139 443.538 334.562 444.217C334.121 444.384 333.709 444.398 335.257 444.398V444.398Z" stroke="black" stroke-width="5.5" stroke-linecap="square" stroke-linejoin="round"/>
<path fill-rule="evenodd" clip-rule="evenodd" d="M334.534 444.347C334.121 444.384 333.709 444.398 333.292 444.398H271.21C268.349 444.396 265.607 443.255 263.589 441.227C262.355 439.995 261.441 438.48 260.924 436.814C260.604 435.776 260.447 434.693 260.46 433.607C260.47 427.648 265.293 422.817 271.251 422.797H333.292C333.598 422.797 333.922 422.797 334.219 422.834C334.272 422.843 334.327 422.843 334.381 422.834H334.474C334.274 422.871 334.075 422.89 333.876 422.941H333.843C333.843 422.941 333.788 422.941 333.769 422.941C328.703 423.948 325.049 428.386 325.031 433.551C325.061 439.016 329.139 443.612 334.562 444.291L334.534 444.347Z" stroke="black" stroke-width="5.5" stroke-linecap="square" stroke-linejoin="round"/>
<path fill-rule="evenodd" clip-rule="evenodd" d="M260.419 433.607C260.419 439.566 265.25 444.398 271.21 444.398H245.358C240.422 444.398 237.719 443.193 235.754 441.227C233.731 439.208 232.596 436.465 232.602 433.607C232.602 427.664 237.45 422.797 245.358 422.797H271.21C265.251 422.817 260.429 427.648 260.419 433.607V433.607Z" stroke="black" stroke-width="5.5" stroke-linecap="square" stroke-linejoin="round"/>
<path fill-rule="evenodd" clip-rule="evenodd" d="M335.257 444.398H333.292C333.709 444.398 334.122 444.398 334.534 444.347C334.122 444.384 333.709 444.398 335.257 444.398V444.398Z" stroke="black" stroke-width="5.5" stroke-linecap="square" stroke-linejoin="round"/>
<path fill-rule="evenodd" clip-rule="evenodd" d="M334.391 422.844C334.034 422.844 333.654 422.788 333.292 422.788H335.257C333.885 422.797 334.048 422.844 334.391 422.844Z" stroke="black" stroke-width="5.5" stroke-linecap="square" stroke-linejoin="round"/>
<path opacity="0.54" d="M64.9903 403.736L32.8113 321.3C32.0035 318.068 32.7295 314.645 34.7794 312.019C36.8294 309.393 39.9746 307.858 43.3059 307.857H171.141C177.048 307.856 182.186 311.904 183.568 317.647L218.797 400.074C219.571 403.297 218.825 406.696 216.773 409.299C214.721 411.902 211.589 413.42 208.275 413.419H77.3807C71.5173 413.419 66.4077 409.425 64.9903 403.736Z" fill="white"/>
<path d="M64.9903 403.736L32.8113 321.3C32.0035 318.068 32.7295 314.645 34.7794 312.019C36.8294 309.393 39.9746 307.858 43.3059 307.857H171.141C177.048 307.856 182.186 311.904 183.568 317.647L218.797 400.074C219.571 403.297 218.825 406.696 216.773 409.299C214.721 411.902 211.589 413.42 208.275 413.419H77.3807C71.5173 413.419 66.4077 409.425 64.9903 403.736Z" fill="#3FBDF1"/>
<path fill-rule="evenodd" clip-rule="evenodd" d="M64.9903 403.736L32.8113 321.3C32.0035 318.068 32.7295 314.645 34.7794 312.019C36.8294 309.393 39.9746 307.858 43.3059 307.857H171.141C177.048 307.856 182.186 311.904 183.568 317.647L218.797 400.074C219.571 403.297 218.825 406.696 216.773 409.299C214.721 411.902 211.589 413.42 208.275 413.419H77.3807C71.5173 413.419 66.4077 409.425 64.9903 403.736Z" stroke="black" stroke-width="5.5" stroke-linecap="square" stroke-linejoin="round"/>
<path d="M69.6907 400.399L40.0241 324.346C39.2779 321.366 39.9456 318.208 41.8341 315.786C43.7227 313.363 46.6217 311.945 49.6936 311.941H167.609C173.058 311.942 177.798 315.677 179.072 320.976L211.571 396.996C212.285 399.97 211.597 403.107 209.704 405.508C207.812 407.91 204.922 409.312 201.864 409.313H81.1308C75.7251 409.315 71.0102 405.641 69.6907 400.399Z" fill="#3FBDF1"/>
<path d="M159.089 325.926C157.527 323.576 154.973 322.533 153.378 323.608C151.783 324.684 151.76 327.433 153.322 329.783C153.569 330.141 153.845 330.477 154.147 330.789L142.559 355.25C140.705 354.017 138.679 353.711 137.224 354.684C136.272 355.376 135.676 356.454 135.597 357.628L127.679 354.953L120.759 352.635L118.497 351.894C118.213 351.044 117.819 350.235 117.324 349.488C115.127 346.187 111.539 344.723 109.3 346.211C107.061 347.699 107.038 351.504 109.175 354.781L96.0056 372.781C93.1317 370.421 89.7432 369.694 87.3977 371.251C84.2085 373.379 84.1529 378.918 87.2911 383.628C87.4162 383.813 87.5599 383.971 87.6897 384.147L78.8963 396.162L78.8175 396.278C78.1425 397.188 78.0247 398.396 78.5113 399.419C78.9978 400.442 80.0092 401.113 81.141 401.164C82.2728 401.215 83.3403 400.637 83.9165 399.661L91.7364 387.892C94.2024 389.324 96.8353 389.598 98.7498 388.319C101.8 386.288 101.944 381.152 99.2133 376.591L111.845 357.526C113.699 358.791 115.766 359.116 117.24 358.137C118.065 357.557 118.626 356.674 118.803 355.681L119.73 355.945L126.771 357.869L135.782 360.298C136.056 361.377 136.51 362.402 137.126 363.329C139.319 366.625 142.911 368.094 145.15 366.606C147.389 365.118 147.417 361.239 145.224 357.943C144.901 357.464 144.538 357.013 144.14 356.594L155.167 331.66C156.498 332.587 157.948 332.796 159.019 332.096C160.637 331.062 160.66 328.281 159.089 325.926Z" fill="white"/>
<path d="M75.1883 327.276H58.1069C56.5011 327.282 55.0446 326.335 54.3986 324.865C54.3012 324.645 54.2491 324.406 54.2456 324.165C54.2557 323.196 55.0428 322.416 56.0117 322.413H74.1778C73.3342 323.855 73.7977 325.857 75.1883 327.276Z" fill="#D7E8F0"/>
<path d="M86.2481 325.523C86.243 326.491 85.4587 327.273 84.4913 327.276H75.1881C73.7696 325.857 73.3339 323.855 74.1915 322.413H82.3961C83.9986 322.404 85.4542 323.345 86.1044 324.81C86.2002 325.035 86.2491 325.278 86.2481 325.523Z" fill="#3FBDF1"/>
<path d="M81.9743 327.275C81.9244 327.368 81.8686 327.458 81.8074 327.544C80.5837 329.208 77.9415 329.366 75.888 327.864C75.6421 327.687 75.4111 327.49 75.1973 327.275C73.7789 325.857 73.3432 323.854 74.2007 322.413C74.2472 322.318 74.3031 322.228 74.3676 322.144C75.5774 320.47 78.2196 320.327 80.2731 321.815C80.5227 321.994 80.7568 322.194 80.973 322.413C82.3822 323.836 82.8179 325.82 81.9743 327.275Z" fill="white"/>
<path d="M90.5452 336.249C90.5376 337.219 89.7491 338.001 88.7791 338.001H70.8448C71.7116 336.546 71.2805 334.562 69.8574 333.139H86.7025C88.3082 333.132 89.7648 334.079 90.4108 335.549C90.5018 335.771 90.5476 336.009 90.5452 336.249Z" fill="#3FBDF1"/>
<path d="M70.8446 338.016H62.4082C60.8057 338.025 59.35 337.084 58.6999 335.619C58.6027 335.395 58.5507 335.154 58.5469 334.91C58.5444 334.444 58.7281 333.997 59.0571 333.667C59.3861 333.337 59.8332 333.152 60.2991 333.153H69.8573C71.2803 334.562 71.7114 336.546 70.8446 338.016Z" fill="#D7E8F0"/>
<path d="M70.845 338.015C70.8065 338.111 70.7551 338.202 70.692 338.284C69.4822 339.962 66.8354 340.106 64.7819 338.618C64.5279 338.435 64.2878 338.233 64.0634 338.015C62.6728 336.597 62.2093 334.608 63.0668 333.153C63.1123 333.059 63.1683 332.97 63.2337 332.888C64.4528 331.22 67.095 331.067 69.1531 332.564C69.3963 332.743 69.6257 332.939 69.8391 333.153C71.2807 334.562 71.7118 336.546 70.845 338.015Z" fill="white"/>
<path d="M76.82 348.677H66.0844C64.4819 348.681 63.0278 347.74 62.3761 346.276C62.2787 346.055 62.2267 345.817 62.2231 345.576C62.2257 344.601 63.0149 343.812 63.9892 343.81H75.8002C74.9751 345.242 75.4109 347.23 76.82 348.677Z" fill="#3FBDF1"/>
<path d="M94.2209 346.91C94.2158 347.876 93.43 348.656 92.4641 348.653H76.8196C75.429 347.23 74.9655 345.242 75.8184 343.786H90.3782C91.9766 343.785 93.4236 344.732 94.0633 346.197C94.1639 346.421 94.2176 346.664 94.2209 346.91Z" fill="#D7E8F0"/>
<path d="M83.592 348.677C83.5464 348.771 83.4905 348.859 83.4251 348.941C82.2152 350.619 79.5731 350.763 77.5196 349.275C77.2731 349.091 77.0393 348.891 76.8196 348.677C75.429 347.254 74.9655 345.265 75.8184 343.809C75.8673 343.717 75.9231 343.629 75.9853 343.545C77.209 341.881 79.8512 341.733 81.9047 343.221C82.1483 343.401 82.3791 343.597 82.5953 343.809C83.9952 345.209 84.4588 347.207 83.592 348.677Z" fill="white"/>
<path d="M146.235 398.896H135.495C133.892 398.901 132.438 397.959 131.787 396.495C131.685 396.276 131.632 396.037 131.629 395.795C131.631 394.821 132.421 394.032 133.395 394.029H145.211C144.39 395.494 144.826 397.473 146.235 398.896Z" fill="#3FBDF1"/>
<path d="M188.857 397.154C188.856 397.617 188.671 398.061 188.342 398.388C188.013 398.715 187.568 398.898 187.105 398.896H146.235C144.844 397.473 144.381 395.485 145.233 394.029H185.014C186.613 394.028 188.06 394.975 188.7 396.44C188.8 396.664 188.854 396.907 188.857 397.154Z" fill="#D7E8F0"/>
<path d="M153.007 398.896C152.961 398.99 152.906 399.079 152.84 399.161C151.63 400.839 148.988 400.982 146.935 399.494C146.687 399.312 146.453 399.112 146.235 398.896C144.844 397.473 144.381 395.485 145.233 394.029C145.282 393.937 145.338 393.849 145.4 393.765C146.624 392.101 149.266 391.953 151.32 393.44C151.563 393.62 151.794 393.817 152.01 394.029C153.429 395.452 153.865 397.45 153.007 398.896Z" fill="white"/>
</svg>
