<svg width="1953" height="1189" viewBox="0 0 1953 1189" fill="none" xmlns="http://www.w3.org/2000/svg">
<rect y="284" width="1440" height="885" fill="#FCFCFF"/>
<rect x="764" y="669.63" width="947" height="734" rx="367" transform="rotate(-45 764 669.63)" fill="#F1F4FF"/>
<path fill-rule="evenodd" clip-rule="evenodd" d="M1076.06 1122.23H791.903C767.135 1106.75 758.317 1074.92 771.594 1048.91C784.87 1022.91 815.836 1011.36 842.916 1022.31C851.196 1010.92 863.91 1003.56 877.917 1002.04C891.925 1000.53 905.92 1005 916.446 1014.36C929.462 986.358 962.187 973.501 990.803 985.148C1019.42 996.796 1033.84 1028.84 1023.57 1057.97C1039.58 1058.21 1054.66 1065.5 1064.78 1077.89C1074.9 1090.28 1079.03 1106.51 1076.06 1122.23V1122.23Z" fill="#E3EEFF"/>
<path fill-rule="evenodd" clip-rule="evenodd" d="M695.546 748.534L661.869 1079.65L766.24 1068.71L726.525 745.066L695.546 748.534Z" fill="#E3EEFF"/>
<path fill-rule="evenodd" clip-rule="evenodd" d="M819.569 1099.96C824.178 1087.29 821.695 1073.13 813.05 1062.79C819.449 1057.1 822.632 1048.62 821.559 1040.13C820.486 1031.64 815.294 1024.22 807.68 1020.3C817.868 1008.85 820.191 992.42 813.575 978.605C806.958 964.79 792.694 956.29 777.386 957.04C762.078 957.791 748.715 967.646 743.483 982.042C742.701 984.205 742.114 986.434 741.729 988.701C722.623 978.531 698.893 985.134 687.797 1003.71C676.7 1022.28 682.143 1046.29 700.167 1058.27C692.564 1064.57 687.981 1073.79 687.55 1083.65C687.118 1093.51 690.879 1103.09 697.902 1110.03C695.658 1113.8 694.061 1117.93 693.176 1122.23H797.898C807.984 1118.26 815.877 1110.15 819.569 1099.96Z" fill="#E3EEFF"/>
<path fill-rule="evenodd" clip-rule="evenodd" d="M668.753 1007.99C670.734 1005.07 672.261 1001.86 673.283 998.479C678.354 981.792 670.459 964.622 655.65 960.134C642.248 956.067 627.779 963.786 621.396 977.657C608.932 977.27 596.82 986.317 592.585 1000.25C589.143 1011.59 591.836 1023.14 598.648 1030.62C592.585 1032.92 587.426 1038.3 585.236 1045.52C581.702 1057.15 587.205 1069.12 597.521 1072.24C598.42 1072.51 599.339 1072.7 600.269 1072.82C600.243 1072.9 600.21 1072.97 600.188 1073.06C596.383 1085.57 602.306 1098.44 613.411 1101.81C624.516 1105.18 636.603 1097.76 640.403 1085.25C641.071 1083.06 641.45 1080.78 641.53 1078.48C641.815 1078.58 642.09 1078.68 642.372 1078.76C660.132 1084.15 679.459 1072.29 685.541 1052.28C691.101 1033.97 683.649 1015.19 668.753 1007.99Z" fill="#E3EEFF"/>
<path fill-rule="evenodd" clip-rule="evenodd" d="M683.89 1065.76C683.34 1045.43 671.873 1026.98 653.886 1017.48C635.899 1007.98 614.185 1008.91 597.072 1019.9C597.069 1019.69 597.075 1019.47 597.069 1019.25C596.416 994.855 579.467 973.927 555.724 968.202C531.981 962.477 507.347 973.378 495.631 994.795C484.727 989.282 471.804 989.491 461.084 995.355C450.364 1001.22 443.223 1011.98 441.994 1024.13C415.478 1014.42 385.934 1026.64 374.049 1052.24C362.165 1077.84 371.909 1108.28 396.46 1122.23H639.77C666.109 1116.39 684.609 1092.71 683.89 1065.76Z" fill="#E3EEFF"/>
<path fill-rule="evenodd" clip-rule="evenodd" d="M701.731 751.094L674.576 1049.05L748.807 1038.02L722.361 747.986L701.731 751.094Z" fill="white"/>
<path fill-rule="evenodd" clip-rule="evenodd" d="M1029.09 1122.23H392.134C391.993 1105.23 399.834 1089.14 413.319 1078.78C426.803 1068.41 444.371 1064.97 460.777 1069.46C462.243 1069.87 463.684 1070.33 465.1 1070.85C466.328 1058.7 473.468 1047.93 484.189 1042.07C494.909 1036.2 507.832 1035.99 518.737 1041.51C527.161 1026.11 542.55 1015.76 560 1013.76C577.45 1011.76 594.784 1018.36 606.477 1031.46C609.735 1024.51 615.332 1019.14 622.208 1016.73C623.165 1001.49 633.884 989.086 647.853 988.06C663.289 986.92 676.839 1000.1 678.117 1017.49C678.384 1021.01 678.116 1024.56 677.322 1028C681.206 1028.33 684.993 1029.39 688.48 1031.14C699.885 1013.33 723.073 1007.28 741.731 1017.25C742.115 1014.98 742.702 1012.75 743.485 1010.58C750.747 990.969 772.498 980.895 792.169 988.038C811.841 995.18 822.047 1016.86 815.014 1036.56C814.939 1036.76 814.852 1036.96 814.777 1037.16C827.021 1034.93 839.661 1036.83 850.706 1042.56C853.824 1044.18 856.784 1046.08 859.551 1048.24C870.662 1039.59 884.918 1036.03 898.797 1038.45C912.676 1040.87 924.884 1049.04 932.406 1060.94C939.692 1052.58 949.231 1046.48 959.888 1043.38C960.585 1043.18 961.283 1042.99 961.988 1042.81C983.43 1037.43 1006.07 1044.72 1020.33 1061.6C1034.6 1078.48 1037.99 1102 1029.09 1122.23V1122.23Z" fill="white"/>
<path fill-rule="evenodd" clip-rule="evenodd" d="M519.549 1124.63H554.867C554.867 1124.63 560.542 1108.25 557.388 1102.26L545.45 1101.31C544.948 1104.01 542.474 1113.51 532.475 1114.87C520.812 1116.44 519.549 1124.63 519.549 1124.63Z" fill="#353B6E"/>
<path fill-rule="evenodd" clip-rule="evenodd" d="M647.497 1124.63H612.179C612.179 1124.63 606.503 1108.25 609.658 1102.26L621.596 1101.31C622.098 1104.01 624.571 1113.51 634.57 1114.86C646.234 1116.44 647.497 1124.63 647.497 1124.63Z" fill="#353B6E"/>
<path fill-rule="evenodd" clip-rule="evenodd" d="M541.108 890.828C541.108 890.828 534.471 990.687 534.84 1015.38C535.208 1040.07 535.945 1108.97 535.945 1108.97H566.182C566.182 1108.97 559.544 1036.75 559.913 1017.96C560.282 999.164 572.819 923.993 572.819 923.993C572.819 923.993 589.781 999.164 592.362 1011.32C594.944 1023.48 603.425 1107.13 603.425 1107.13H628.13C628.13 1107.13 622.477 1015.13 619.158 995.602C615.839 976.073 601.95 888.619 601.95 888.619L541.108 890.828Z" fill="#FF90C6"/>
<path fill-rule="evenodd" clip-rule="evenodd" d="M568.432 861.753L563.812 881.234C563.812 881.234 510.927 876.23 503.91 866.83C502.234 864.583 503.265 859.792 505.813 853.797C512.645 837.702 528.726 811.58 534.102 804.236C535.146 802.813 538.439 803.318 540.205 803.223C573.137 801.487 529.707 852.061 528.21 853.797C528.184 853.827 528.169 853.841 528.169 853.841L568.432 861.753Z" fill="#404884"/>
<path fill-rule="evenodd" clip-rule="evenodd" d="M636.299 875.21C636.125 875.548 635.93 875.876 635.716 876.19C633.496 879.455 628.699 881.894 618.371 878.173C598.204 870.899 585.236 855.578 585.236 855.578L593.96 844.402L614.241 857.053L614.137 856.899L600.722 836.912C600.722 836.912 593.502 811.664 608.219 804.238C611.593 802.539 618.002 817.784 636.682 866.763C637.759 869.505 637.619 872.576 636.299 875.21Z" fill="#404884"/>
<path fill-rule="evenodd" clip-rule="evenodd" d="M534.103 804.235C534.656 802.577 551.104 796.763 568.396 797.971C585.973 799.199 610.309 802.884 610.064 804.604C608.741 813.858 602.689 873.142 601.951 888.618C601.951 888.618 571.346 905.938 541.11 890.828L534.103 804.235Z" fill="#353B6E"/>
<path fill-rule="evenodd" clip-rule="evenodd" d="M583.551 769.166C583.551 769.166 584.984 762.78 584.015 760.924C583.045 759.068 582.354 756.434 578.218 755.915C574.081 755.397 569.551 757.437 565.982 760.809C562.412 764.181 553.02 766.571 557.2 777.231C561.38 787.891 570.289 785.973 570.586 789.686L575.541 781.584L583.551 769.166Z" fill="#423565"/>
<path fill-rule="evenodd" clip-rule="evenodd" d="M583.205 767.109C583.205 767.109 596.692 785.783 583.707 788.685C575.66 790.484 570.93 785.502 570.93 785.502C570.93 785.502 568.476 787.245 566.347 781.796C565.083 778.558 568.641 775.452 570.501 780.564C570.501 780.564 573.768 780.517 572.921 775.923C572.075 771.329 574.438 770.78 577.178 770.744C579.919 770.707 583.253 768.574 583.205 767.109Z" fill="#FFD5C0"/>
<path fill-rule="evenodd" clip-rule="evenodd" d="M563.049 793.366L578.966 795.269C578.966 795.269 576.385 805.74 570.239 804.357C564.093 802.974 563.049 793.366 563.049 793.366Z" fill="#353B6E"/>
<path fill-rule="evenodd" clip-rule="evenodd" d="M569.443 780.88C569.443 780.88 568.033 790.395 565.162 794.672C565.162 794.672 559.999 803.576 569.502 804.602C578.596 805.585 576.043 799.655 576.245 798.85C576.446 798.045 580.275 787.271 580.275 787.271C580.275 787.271 580.375 776.804 569.443 780.88Z" fill="#FFD5C0"/>
<path fill-rule="evenodd" clip-rule="evenodd" d="M563.049 793.366L570.793 804.666L565.815 811.729L558.01 797.665L563.049 793.366Z" fill="#404884"/>
<path fill-rule="evenodd" clip-rule="evenodd" d="M570.792 804.666L578.966 795.27L581.67 799.077L577.183 813.511L570.792 804.666Z" fill="#404884"/>
<path fill-rule="evenodd" clip-rule="evenodd" d="M571.96 866.941V855.149H577.245V867.187L571.96 866.941Z" fill="#CDE2FF"/>
<path d="M574.787 856.745C577.434 856.745 579.58 854.6 579.58 851.955C579.58 849.309 577.434 847.165 574.787 847.165C572.14 847.165 569.993 849.309 569.993 851.955C569.993 854.6 572.14 856.745 574.787 856.745Z" fill="#FF90C6"/>
<path d="M589.291 864.852H561.144V872.222H589.291V864.852Z" fill="#AC7DFD"/>
<path fill-rule="evenodd" clip-rule="evenodd" d="M552.601 863.193L561.205 864.391C561.205 864.391 566.367 860.706 567.473 861.351C568.579 861.996 573.742 862.917 574.11 862.64C574.11 862.64 574.387 864.944 571.16 864.944C567.934 864.944 561.143 864.851 561.143 864.851V872.221H578.903C578.903 872.221 575.4 876.366 572.081 876.827C568.763 877.287 558.991 874.248 558.991 874.248L547.745 872.866C547.745 872.866 540.616 861.811 552.601 863.193Z" fill="#FFD5C0"/>
<path fill-rule="evenodd" clip-rule="evenodd" d="M560.037 860.615L555.243 878.056C555.243 878.056 510.927 876.231 503.91 866.83C502.234 864.582 503.265 859.792 505.813 853.797H528.209C528.183 853.826 528.168 853.841 528.168 853.841L560.037 860.615Z" fill="#404884"/>
<path fill-rule="evenodd" clip-rule="evenodd" d="M597.986 847.809L585.189 839.017C583.986 838.19 582.427 838.09 581.128 838.755L572.082 843.388L567.105 853.061L571.806 858.68C571.806 858.68 573.189 857.575 571.53 855.732C569.871 853.889 569.871 853.059 569.871 853.059L573.005 846.611L578.996 847.993L577.337 853.151C577.337 853.151 572.451 855.454 573.188 857.112L580.656 855.27L584.159 849.098L593.285 855.362C593.285 855.362 604.9 857.113 597.986 847.809Z" fill="#FFD5C0"/>
<path fill-rule="evenodd" clip-rule="evenodd" d="M635.716 876.191C633.496 879.455 628.358 882.729 618.371 878.173C598.325 869.028 589.167 860.983 589.167 860.983L593.96 844.401L614.24 857.053L614.137 856.898L635.716 876.191Z" fill="#404884"/>
<path fill-rule="evenodd" clip-rule="evenodd" d="M851.668 819.785C851.668 819.785 818.603 835.992 836.959 853.204C842.868 858.104 860.595 857.099 860.595 857.099L858.709 825.062L851.668 819.785Z" fill="#353B6E"/>
<path fill-rule="evenodd" clip-rule="evenodd" d="M863.996 822.676C863.996 822.676 899.449 836.495 881.094 853.708C875.185 858.608 857.458 857.602 857.458 857.602L859.344 825.565L863.996 822.676Z" fill="#353B6E"/>
<path fill-rule="evenodd" clip-rule="evenodd" d="M849.638 827.324C849.638 827.324 846.369 851.194 860.324 851.194C874.28 851.194 871.891 826.947 871.891 826.947L849.638 827.324Z" fill="#FFD5C0"/>
<path d="M862.369 845.038H858.984C856.621 845.038 854.705 846.953 854.705 849.315V867.647C854.705 870.009 856.621 871.924 858.984 871.924H862.369C864.732 871.924 866.648 870.009 866.648 867.647V849.315C866.648 846.953 864.732 845.038 862.369 845.038Z" fill="#FFD5C0"/>
<path d="M862.794 998.439C884.354 998.439 901.831 986.711 901.831 972.244C901.831 957.777 884.354 946.049 862.794 946.049C841.235 946.049 823.758 957.777 823.758 972.244C823.758 986.711 841.235 998.439 862.794 998.439Z" fill="#FF73B7"/>
<path fill-rule="evenodd" clip-rule="evenodd" d="M842.239 1038.77L842.994 1063.89C842.994 1063.89 840.228 1080.23 845.005 1084.75C849.782 1089.27 854.308 1064.65 854.308 1064.65L855.063 1036.51L842.239 1038.77Z" fill="#FFD5C0"/>
<path fill-rule="evenodd" clip-rule="evenodd" d="M859.212 1038.77L859.966 1063.89C859.966 1063.89 857.201 1080.23 861.978 1084.75C866.755 1089.27 871.281 1064.65 871.281 1064.65L872.036 1036.51L859.212 1038.77Z" fill="#FFD5C0"/>
<path fill-rule="evenodd" clip-rule="evenodd" d="M864.115 957.732C913.9 958.766 899.568 1048.07 899.568 1048.07C899.568 1048.07 871.657 1051 854.685 1051.52C837.713 1052.04 821.495 1049.11 821.495 1049.11C821.495 1049.11 817.729 956.77 864.115 957.732Z" fill="#FF90C6"/>
<path fill-rule="evenodd" clip-rule="evenodd" d="M979.025 956.325V948.687H960.217C940.294 944.593 906.658 941.903 868.516 941.903C830.374 941.903 796.736 944.593 776.814 948.687H757.754V957.607H757.777C758.74 966.026 807.946 972.809 868.515 972.809C929.687 972.809 979.276 965.891 979.276 957.356C979.27 956.998 979.185 956.645 979.025 956.325Z" fill="#353B6E"/>
<path d="M868.515 964.141C929.687 964.141 979.277 957.222 979.277 948.688C979.277 940.153 929.687 933.234 868.515 933.234C807.343 933.234 757.754 940.153 757.754 948.688C757.754 957.222 807.343 964.141 868.515 964.141Z" fill="#AC7DFD"/>
<path fill-rule="evenodd" clip-rule="evenodd" d="M828.284 867.653C828.284 867.653 805.78 921.802 804.019 929.089C802.368 935.928 800.75 941.15 821.746 941.15H844V928.712L820.741 925.697L831.931 894.916C831.931 894.916 848.022 865.894 828.284 867.653Z" fill="#FFD5C0"/>
<path fill-rule="evenodd" clip-rule="evenodd" d="M897.3 867.653C897.3 867.653 919.803 921.802 921.564 929.089C923.216 935.928 924.833 941.15 903.837 941.15H881.583V928.712L904.842 925.697L893.653 894.916C893.653 894.916 877.561 865.894 897.3 867.653Z" fill="#FFD5C0"/>
<path fill-rule="evenodd" clip-rule="evenodd" d="M828.284 867.653L801.38 908.359L824.01 917.405L830.296 900.569C830.296 900.569 840.229 866.397 828.284 867.653Z" fill="#FF90C6"/>
<path fill-rule="evenodd" clip-rule="evenodd" d="M897.164 867.37L924.068 908.076L901.438 917.122L895.152 900.286C895.152 900.286 885.22 866.114 897.164 867.37Z" fill="#FF90C6"/>
<path fill-rule="evenodd" clip-rule="evenodd" d="M897.127 867.399C897.127 869.412 888.86 940.27 888.86 940.27H834.888C834.888 940.27 825.892 871.673 828.324 867.652C829.637 865.481 837.368 863.86 844.202 862.827C850.018 861.945 855.19 861.497 855.19 861.497L865.765 861.621C865.765 861.621 872.14 862.387 879.141 863.415C887.671 864.663 897.127 866.295 897.127 867.399Z" fill="#FF90C6"/>
<path d="M892.214 895.543H831.302V944.541H892.214V895.543Z" fill="#DDDDDD"/>
<path d="M892.214 944.541H831.302V946.708H892.214V944.541Z" fill="#AFAFAF"/>
<path fill-rule="evenodd" clip-rule="evenodd" d="M880.239 863.57C880.239 863.57 874.675 881.033 861.286 881.033C847.897 881.033 842.994 863.067 842.994 863.067C843.122 862.837 854.969 861.277 854.969 861.277L866.378 861.214L880.239 863.57Z" fill="#FFD5C0"/>
<path fill-rule="evenodd" clip-rule="evenodd" d="M849.164 831.353C849.164 831.353 866.162 836.56 874.645 829.775C882.259 823.686 871.671 814.56 853.88 819.155C848.586 820.523 844.108 824.183 841.989 829.219C839.974 834.003 840.113 839.824 849.468 843.278C849.468 843.279 848.085 840.389 849.164 831.353Z" fill="#353B6E"/>
<path fill-rule="evenodd" clip-rule="evenodd" d="M842.581 1077.65C842.581 1077.65 824.524 1084.04 823.772 1088.55C823.019 1093.06 851.985 1088.17 851.985 1088.17C851.985 1088.17 853.867 1070.13 842.581 1077.65Z" fill="#485194"/>
<path fill-rule="evenodd" clip-rule="evenodd" d="M867.364 1077.65C867.364 1077.65 885.42 1084.04 886.173 1088.55C886.925 1093.06 857.959 1088.17 857.959 1088.17C857.959 1088.17 856.077 1070.13 867.364 1077.65Z" fill="#485194"/>
<path fill-rule="evenodd" clip-rule="evenodd" d="M685.267 1133.63C685.173 1133.98 685.072 1134.32 684.967 1134.67C679.347 1135.32 673.86 1135.95 668.508 1136.55C668.508 1135.59 668.459 1134.62 668.369 1133.63H448.783C444.288 1120.4 449.36 1114.09 449.36 1114.09C453.166 1109.36 460.102 1108.91 463.656 1108.95C461.378 1099.77 460.409 1090.32 460.777 1080.87C462.134 1049.04 479.681 1026.62 496.252 1024.37C506.398 1022.99 518.317 1028.88 528.724 1039.87C535.972 1047.53 542.484 1057.65 547.148 1069.52C560.165 1051.05 583.04 1042.42 604.335 1047.8C623.524 1052.65 638.544 1068.14 643.223 1087.8C645.541 1087.27 660.406 1084.1 672.958 1093.52C684.573 1102.23 689.561 1118.22 685.267 1133.63Z" fill="#FFCAE7"/>
<path fill-rule="evenodd" clip-rule="evenodd" d="M1048.24 1111.42C1047.78 1118.81 1047.47 1123.59 1046.74 1127.01C1045.31 1118.5 1041.36 1110.36 1034.58 1105.78C1033.72 1105.2 1032.82 1104.69 1031.89 1104.23C1032.97 1114.26 1031.39 1124.4 1027.3 1133.63H835.226C823.938 1127.85 816.548 1120.95 815.063 1113.06C812.967 1101.89 822.16 1086.07 834.221 1078.05C847.73 1069.07 863.207 1070.95 869.255 1072.03C870.648 1064.03 873.962 1056.48 878.913 1050.04C885.494 1041.4 894.832 1035.26 905.378 1032.65C925.366 1027.8 946.777 1036.74 958.104 1054.78C958.61 1055.59 959.103 1056.42 959.566 1057.26C959.768 1056.22 959.981 1055.21 960.203 1054.22C966.274 1027.16 979.411 1020.07 990.711 1020.36C1003.42 1020.69 1019.58 1032.92 1019.78 1071.49C1032.46 1061.71 1038.46 1063.39 1040.58 1064.38C1050.9 1069.18 1049.29 1094.74 1048.24 1111.42Z" fill="#FFCAE7"/>
<path fill-rule="evenodd" clip-rule="evenodd" d="M743.432 756.131L740.372 756.184L737.189 744.331L735.983 739.84L694.228 740.569L693.057 745.102L714.144 744.734L693.057 745.103L689.968 757.065L686.908 757.119C686.238 757.13 685.626 757.498 685.302 758.084C684.977 758.67 684.99 759.384 685.335 759.958C685.679 760.532 686.304 760.878 686.973 760.866L743.497 759.879C744.166 759.867 744.778 759.499 745.103 758.914C745.427 758.328 745.415 757.614 745.07 757.04C744.725 756.466 744.101 756.12 743.431 756.131L743.432 756.131Z" fill="#AC7DFD"/>
<path fill-rule="evenodd" clip-rule="evenodd" d="M714.821 740.375L684.345 740.908C682.024 740.948 679.782 740.065 678.112 738.452C676.442 736.839 675.482 734.628 675.442 732.307L673.667 670.265C673.383 653.998 678.279 615.72 687.16 602.088L712.399 601.648L737.642 601.207L737.644 601.208C746.991 614.52 752.972 649.323 753.256 665.587L753.896 730.937C753.936 733.258 753.053 735.5 751.441 737.17C749.828 738.84 747.619 739.801 745.298 739.842L714.821 740.374V740.375Z" fill="#FBFAFF"/>
<mask id="mask0_1_153" style="mask-type:alpha" maskUnits="userSpaceOnUse" x="673" y="601" width="82" height="140">
<path d="M714.847 740.177L684.265 740.709C681.936 740.75 679.686 739.867 678.011 738.255C676.335 736.643 675.371 734.434 675.331 732.114L673.55 670.107C673.265 653.849 678.178 615.592 687.09 601.968L712.417 601.528L737.747 601.087L737.749 601.089C747.129 614.393 753.13 649.176 753.415 665.431L754.057 730.744C754.098 733.064 753.212 735.305 751.594 736.974C749.976 738.643 747.758 739.604 745.429 739.644L714.847 740.176V740.177Z" fill="white"/>
</mask>
<g mask="url(#mask0_1_153)">
<path fill-rule="evenodd" clip-rule="evenodd" d="M727.829 597.766C728.529 597.789 728.97 599.052 729.516 599.985C734.661 608.808 739.114 618.146 741.426 628.136C745.87 647.332 745.06 667.465 745.17 686.974C745.242 704.736 745.846 722.317 744.978 740.71C744.978 740.71 745.063 741.264 744.748 741.511C744.429 741.758 743.922 741.709 743.86 741.052C745.068 716.801 744.14 692.797 743.899 667.369C743.694 648.931 742.818 629.968 735.135 613.042C732.879 608.069 730.216 603.296 727.416 598.59C727.416 598.59 727.173 597.932 727.829 597.766ZM746.441 731.321C746.848 731.095 747.425 731.352 747.403 731.814C747.363 732.6 745.179 732.044 746.44 731.321H746.441ZM746.75 722.254C747.264 721.96 747.966 722.992 747.246 723.405C746.691 723.724 746.089 722.641 746.75 722.255V722.254ZM746.328 710.37C746.939 710.023 747.561 710.991 746.954 711.399C746.438 711.747 745.701 710.733 746.328 710.371L746.328 710.37ZM681.024 710.37C681.634 710.023 682.256 710.991 681.65 711.399C681.133 711.747 680.396 710.733 681.023 710.371L681.024 710.37ZM695.649 596.617C697.133 596.484 695.798 598.288 695.04 599.754C691.138 607.356 687.951 615.317 686.253 623.644C683.116 639.045 683.579 654.883 683.795 670.486C684.136 695.34 685.467 720.147 687.007 744.89C687.007 744.89 687.12 745.194 686.717 745.408C686.405 745.573 686.029 745.53 685.909 744.958C684.053 715.113 682.479 685.082 682.546 655.216C682.583 638.359 683.916 621.044 690.864 605.791C692.238 602.777 693.752 599.83 695.289 596.897C695.387 596.777 695.51 596.682 695.65 596.617H695.649ZM682.226 736.4C682.747 736.105 683.597 737.707 682.423 737.474C681.9 737.372 682.182 736.427 682.227 736.401L682.226 736.4ZM746.583 698.515C747.082 698.23 747.925 699.131 747.25 699.545C746.749 699.853 745.871 698.93 746.584 698.515L746.583 698.515ZM681.709 727.123C682.352 726.762 683.087 728.689 681.849 728.175C681.46 728.011 681.239 727.393 681.709 727.122L681.709 727.123ZM745.679 667.734C746.151 667.464 746.961 668.239 746.307 668.675C745.839 668.989 744.938 668.163 745.679 667.734ZM681.37 699.75C681.9 699.447 682.673 700.639 681.838 700.851C681.319 700.983 680.775 700.097 681.37 699.75ZM746.251 657.815C746.441 657.727 746.661 657.729 746.85 657.82C747.039 657.912 747.176 658.083 747.224 658.286C747.349 658.855 746.211 659.257 745.988 658.439C745.927 658.204 746.025 657.957 746.231 657.826L746.251 657.815ZM746.05 649.32C746.601 649.002 747.437 650.508 746.273 650.353C745.822 650.293 745.585 649.591 746.051 649.321L746.05 649.32ZM680.72 685.389C681.253 685.085 682.151 686.647 680.946 686.459C680.498 686.391 680.25 685.662 680.721 685.39L680.72 685.389ZM746.693 685.389C747.226 685.085 748.124 686.647 746.918 686.459C746.471 686.391 746.223 685.662 746.693 685.39L746.693 685.389ZM744.847 639.405C744.899 639.375 744.956 639.354 745.015 639.341C745.73 639.204 746.416 640.656 745.257 640.421C744.928 640.351 744.115 639.83 744.847 639.405L744.847 639.405ZM680.539 672.446C680.913 672.237 681.398 672.82 681.398 672.82C681.562 673.145 681.49 673.57 681.142 673.696C680.861 673.795 680.55 673.655 680.44 673.378C680.397 673.261 680.366 673.545 680.271 673.013C680.236 672.796 680.333 672.579 680.518 672.459L680.539 672.446ZM743.826 629.461C744.341 629.168 745.114 629.962 744.56 630.374C744.049 630.754 743.167 629.846 743.826 629.461L743.826 629.461ZM681.772 629.461C682.288 629.168 683.061 629.962 682.506 630.374C681.995 630.754 681.113 629.846 681.773 629.461L681.772 629.461ZM680.499 660.407C681.014 660.108 681.852 661.196 680.913 661.42C680.421 661.537 679.912 660.747 680.499 660.407ZM742.428 621.96C742.985 621.644 743.884 623.062 742.687 623.027C742.204 623.013 741.931 622.246 742.428 621.96ZM682.871 621.96C683.428 621.644 684.327 623.062 683.13 623.027C682.647 623.013 682.374 622.246 682.871 621.96ZM680.35 647.323C680.894 647.011 681.663 648.246 680.759 648.401C680.244 648.489 679.83 647.626 680.35 647.323ZM739.311 612.705C739.812 612.423 740.473 613.249 739.8 613.741C739.307 614.102 738.475 613.183 739.311 612.705ZM685.46 612.705C685.96 612.423 686.622 613.249 685.949 613.741C685.456 614.102 684.624 613.183 685.46 612.705ZM681.066 637.754C681.646 637.425 682.426 639.505 681.086 638.724C680.919 638.621 680.816 638.44 680.812 638.245C680.808 638.049 680.904 637.865 681.066 637.755V637.754Z" fill="#AACEF2"/>
</g>
<path fill-rule="evenodd" clip-rule="evenodd" d="M712.17 601.479L686.85 601.92C686.85 601.92 709.693 565.518 713.073 564.863C716.248 564.248 737.492 601.037 737.492 601.037L712.17 601.479Z" fill="#FF90C6"/>
<path fill-rule="evenodd" clip-rule="evenodd" d="M737.424 660.626C737.657 673.99 727.005 685.012 713.631 685.245C700.258 685.478 689.227 674.833 688.994 661.469C688.761 648.105 699.413 637.082 712.786 636.848C719.209 636.736 725.413 639.178 730.034 643.638C734.654 648.097 737.313 654.207 737.424 660.626Z" fill="#FF90C6"/>
<path fill-rule="evenodd" clip-rule="evenodd" d="M732.798 660.391C732.715 655.453 730.755 650.731 727.314 647.179C727.33 647.565 727.355 647.949 727.362 648.338C727.584 660.315 722.866 671.856 714.311 680.265C724.823 679.66 732.982 670.889 732.798 660.391Z" fill="#AACEF2"/>
<path fill-rule="evenodd" clip-rule="evenodd" d="M727.362 648.663C727.356 648.275 727.329 647.892 727.315 647.506C724.519 644.573 720.882 642.59 716.911 641.835C716.959 642.368 716.996 642.904 717.005 643.447C717.105 649.16 714.942 654.678 710.993 658.788C707.044 662.897 701.632 665.262 695.947 665.362C695.407 665.371 694.872 665.353 694.341 665.323C696.366 674.364 704.431 680.732 713.651 680.572C713.914 680.567 714.173 680.553 714.433 680.539C722.908 672.143 727.583 660.62 727.364 648.663" fill="#AACEF2"/>
<path fill-rule="evenodd" clip-rule="evenodd" d="M717.153 643.416C717.144 642.875 717.108 642.341 717.059 641.81C710.587 640.607 703.94 642.716 699.366 647.424C694.792 652.133 692.903 658.811 694.338 665.199C694.874 665.229 695.412 665.247 695.957 665.237C707.871 665.03 717.36 655.26 717.152 643.416" fill="white"/>
<path fill-rule="evenodd" clip-rule="evenodd" d="M790.528 713.087C790.452 708.764 787.97 704.839 784.084 702.897L761.15 691.434V691.432L753.184 687.451L753.86 725.94L761.753 725.803L784.245 725.413C787.833 725.35 790.691 722.408 790.629 718.842L790.528 713.087Z" fill="#AC7DFD"/>
<path fill-rule="evenodd" clip-rule="evenodd" d="M675.081 727.193L674.405 688.521L666.586 692.797L644.074 705.108C640.26 707.194 637.918 711.221 637.994 715.564L638.094 721.347C638.157 724.93 641.117 727.785 644.704 727.722L667.189 727.33L675.081 727.193Z" fill="#AC7DFD"/>
<path fill-rule="evenodd" clip-rule="evenodd" d="M718.73 711.984C718.688 709.613 716.707 707.724 714.305 707.765C711.903 707.807 709.99 709.763 710.032 712.135L710.605 744.552C710.659 746.914 712.637 748.79 715.03 748.748C717.423 748.707 719.333 746.764 719.303 744.401L718.73 711.984Z" fill="#FF90C6"/>
<path fill-rule="evenodd" clip-rule="evenodd" d="M668.369 1133.63H468.103C467.338 1131.2 467.173 1128.77 467.904 1126.46C469.228 1122.27 473.101 1119.71 476.152 1118.22C466.693 1107.2 468.62 1090.34 479.902 1081.87C490.993 1073.55 507.398 1076.13 515.519 1087.87C523.768 1070.82 536.515 1073.72 543.92 1076.91C550.526 1079.75 554.512 1084.12 562.01 1106.6C564.845 1089.18 579.317 1076.75 594.629 1076.63C612.981 1076.48 629.868 1094.04 627.997 1115.59C630.299 1114.33 645.476 1106.27 656.866 1112.97C663.817 1117.06 667.619 1125.63 668.369 1133.63Z" fill="white"/>
<path fill-rule="evenodd" clip-rule="evenodd" d="M1034.58 1105.79C1033.72 1105.21 1032.82 1104.69 1031.89 1104.23C1019.64 1098.25 1004.23 1104.36 1000.84 1105.79C1002.79 1091.75 994.087 1078.74 981.714 1075.44C967.598 1071.67 951.664 1081.31 948.537 1097.36C943.089 1078.28 924.024 1067.03 906.358 1070.94C891.132 1074.32 879.498 1088.39 878.805 1105.22C876.758 1104.44 856.958 1097.13 846.186 1106.91C839.131 1113.31 838.632 1124.62 840.3 1133.64H1043.78C1044.74 1132.37 1045.5 1130.96 1046.05 1129.47C1046.33 1128.67 1046.56 1127.84 1046.74 1127.01C1045.31 1118.5 1041.36 1110.36 1034.58 1105.79Z" fill="white"/>
<path d="M886.766 759.095C900.592 759.095 911.799 747.407 911.799 732.989C911.799 718.571 900.592 706.883 886.766 706.883C872.941 706.883 861.733 718.571 861.733 732.989C861.733 747.407 872.941 759.095 886.766 759.095Z" fill="#AC7DFD"/>
<path fill-rule="evenodd" clip-rule="evenodd" d="M886.766 753.874C881.405 753.869 876.283 751.657 872.606 747.758C864.784 739.464 864.784 726.516 872.606 718.223C876.279 714.319 881.404 712.106 886.766 712.106C892.128 712.106 897.253 714.319 900.926 718.223C908.747 726.517 908.747 739.464 900.926 747.758C897.249 751.656 892.127 753.869 886.766 753.874Z" fill="#FAFCFB"/>
<path fill-rule="evenodd" clip-rule="evenodd" d="M886.767 748.653C882.746 748.649 878.904 746.99 876.146 744.066C870.281 737.845 870.281 728.136 876.146 721.915C878.902 718.988 882.745 717.328 886.766 717.328C890.788 717.328 894.631 718.988 897.387 721.915C903.252 728.136 903.252 737.845 897.387 744.066C894.629 746.99 890.787 748.649 886.767 748.653Z" fill="#AC7DFD"/>
<path fill-rule="evenodd" clip-rule="evenodd" d="M886.767 743.431C884.086 743.428 881.526 742.322 879.687 740.372C875.777 736.226 875.777 729.753 879.687 725.607C881.524 723.655 884.086 722.549 886.766 722.549C889.447 722.549 892.009 723.655 893.845 725.607C897.757 729.753 897.757 736.226 893.845 740.372C892.007 742.322 889.447 743.428 886.767 743.431Z" fill="#FAFCFB"/>
<path fill-rule="evenodd" clip-rule="evenodd" d="M886.767 737.205C885.684 737.204 884.65 736.757 883.908 735.97C882.329 734.296 882.329 731.682 883.908 730.008C884.649 729.22 885.684 728.772 886.767 728.772C887.849 728.772 888.884 729.22 889.625 730.008C891.203 731.682 891.203 734.295 889.625 735.97C888.883 736.757 887.849 737.204 886.767 737.205Z" fill="#FF73B7"/>
<path fill-rule="evenodd" clip-rule="evenodd" d="M910.693 708.039C910.563 707.901 910.381 707.822 910.192 707.822C910.002 707.822 909.821 707.901 909.691 708.039L907.45 710.376L906.911 708.266L901.613 713.79L901.892 716.172L886.266 732.467C885.989 732.76 885.989 733.218 886.266 733.512C886.396 733.649 886.577 733.728 886.767 733.728C886.956 733.728 887.137 733.649 887.267 733.512L902.938 717.168L905.238 717.461L910.535 711.937L908.498 711.371L910.692 709.083C910.969 708.79 910.969 708.332 910.693 708.039Z" fill="#423565"/>
<path d="M961.631 654.997H951.407V662.874H961.631V654.997Z" fill="#685696"/>
<path fill-rule="evenodd" clip-rule="evenodd" d="M967.271 641.036C967.271 634.416 961.766 629.136 955.269 629.9C950.568 630.453 946.671 634.29 945.914 639.158C945.32 642.733 946.446 646.379 948.952 648.998C950.5 650.554 951.38 652.651 951.407 654.845V654.997H961.631V654.897C961.64 652.703 962.507 650.6 964.048 649.037C966.128 646.894 967.285 644.022 967.271 641.036Z" fill="#AC7DFD"/>
<path fill-rule="evenodd" clip-rule="evenodd" d="M952.912 639.989C953.483 639.989 953.752 640.469 953.991 640.892C954.236 641.328 954.407 641.592 954.72 641.592C955.032 641.592 955.201 641.328 955.447 640.893C955.685 640.469 955.955 639.989 956.523 639.989C957.092 639.989 957.363 640.469 957.6 640.893C957.846 641.328 958.017 641.592 958.328 641.592C958.639 641.592 958.809 641.328 959.054 640.893C959.292 640.469 959.562 639.989 960.131 639.989C960.699 639.989 960.968 640.469 961.206 640.892C961.45 641.328 961.621 641.592 961.932 641.592C962.043 641.592 962.132 641.681 962.132 641.792C962.132 641.903 962.043 641.992 961.932 641.992C961.364 641.992 961.095 641.512 960.856 641.089C960.613 640.654 960.442 640.39 960.131 640.39C959.82 640.39 959.649 640.654 959.403 641.089C959.165 641.513 958.895 641.992 958.328 641.992C957.76 641.992 957.489 641.513 957.251 641.089C957.006 640.654 956.835 640.39 956.523 640.39C956.212 640.39 956.041 640.654 955.796 641.089C955.558 641.513 955.288 641.992 954.72 641.992C954.151 641.992 953.88 641.512 953.641 641.089C953.396 640.654 953.225 640.39 952.912 640.39C952.599 640.39 952.429 640.654 952.184 641.089C951.945 641.512 951.675 641.992 951.105 641.992C950.995 641.992 950.905 641.903 950.905 641.792C950.905 641.681 950.995 641.592 951.105 641.592C951.418 641.592 951.589 641.328 951.835 640.892C952.074 640.467 952.344 639.989 952.912 639.989Z" fill="white"/>
<path fill-rule="evenodd" clip-rule="evenodd" d="M956.895 648.148H956.143C955.463 648.148 954.911 648.591 954.911 649.139V654.997H958.127V649.139C958.127 648.591 957.576 648.148 956.895 648.148Z" fill="white"/>
<path fill-rule="evenodd" clip-rule="evenodd" d="M955.519 649.135C955.43 649.135 955.347 649.09 955.298 649.015L950.682 641.936C950.628 641.857 950.622 641.755 950.665 641.67C950.707 641.585 950.792 641.529 950.888 641.524C950.983 641.519 951.073 641.566 951.125 641.646L955.74 648.726C955.794 648.807 955.798 648.911 955.752 648.996C955.706 649.082 955.616 649.135 955.519 649.135Z" fill="white"/>
<path fill-rule="evenodd" clip-rule="evenodd" d="M957.516 649.134C957.419 649.134 957.33 649.081 957.283 648.995C957.237 648.91 957.241 648.806 957.295 648.725L961.911 641.645C961.962 641.565 962.053 641.518 962.148 641.523C962.243 641.528 962.328 641.584 962.371 641.669C962.413 641.754 962.407 641.856 962.354 641.935L957.738 649.013C957.689 649.088 957.606 649.133 957.516 649.134Z" fill="white"/>
<path fill-rule="evenodd" clip-rule="evenodd" d="M967.881 622.734C968.06 622.447 968.068 622.085 967.902 621.79C967.736 621.495 967.423 621.314 967.084 621.317C966.745 621.321 966.436 621.509 966.276 621.807L963.757 626.168C963.635 626.379 963.602 626.631 963.667 626.866C963.731 627.102 963.887 627.302 964.1 627.422L964.116 627.431C964.554 627.682 965.112 627.531 965.365 627.094L967.881 622.734Z" fill="#AC7DFD"/>
<path fill-rule="evenodd" clip-rule="evenodd" d="M975.271 630.797C975.695 630.532 975.833 629.979 975.583 629.547C975.333 629.114 974.784 628.957 974.343 629.193L969.98 631.711C969.543 631.962 969.393 632.519 969.643 632.956L969.652 632.972C969.772 633.185 969.972 633.341 970.208 633.406C970.443 633.47 970.695 633.438 970.907 633.316L975.271 630.797Z" fill="#AC7DFD"/>
<path fill-rule="evenodd" clip-rule="evenodd" d="M977.636 639.618H972.572C972.068 639.619 971.659 640.028 971.66 640.532V640.556C971.659 640.798 971.755 641.031 971.927 641.203C972.098 641.374 972.331 641.471 972.574 641.471H977.638C978.15 641.471 978.565 641.056 978.565 640.544C978.565 640.032 978.15 639.617 977.638 639.617L977.636 639.618Z" fill="#AC7DFD"/>
<path fill-rule="evenodd" clip-rule="evenodd" d="M974.344 651.898C974.785 652.133 975.333 651.977 975.584 651.544C975.834 651.112 975.696 650.559 975.271 650.294L970.907 647.777C970.696 647.655 970.444 647.622 970.208 647.687C969.973 647.751 969.773 647.907 969.653 648.12L969.643 648.136C969.394 648.573 969.544 649.13 969.98 649.382L974.344 651.898Z" fill="#AC7DFD"/>
<path fill-rule="evenodd" clip-rule="evenodd" d="M937.769 650.294C937.47 650.453 937.282 650.763 937.278 651.101C937.275 651.439 937.456 651.753 937.751 651.919C938.046 652.085 938.408 652.076 938.696 651.898L943.06 649.38C943.496 649.128 943.646 648.571 943.396 648.134L943.387 648.118C943.267 647.905 943.067 647.749 942.831 647.685C942.596 647.62 942.344 647.653 942.132 647.775L937.769 650.294Z" fill="#AC7DFD"/>
<path fill-rule="evenodd" clip-rule="evenodd" d="M941.381 640.532C941.381 640.29 941.285 640.057 941.114 639.886C940.943 639.714 940.71 639.618 940.468 639.617H935.403C934.891 639.617 934.476 640.032 934.476 640.544C934.476 641.056 934.891 641.471 935.403 641.471H940.468C940.71 641.471 940.943 641.374 941.114 641.202C941.285 641.031 941.381 640.798 941.381 640.556V640.532Z" fill="#AC7DFD"/>
<path fill-rule="evenodd" clip-rule="evenodd" d="M938.696 629.191C938.409 629.012 938.047 629.004 937.752 629.17C937.456 629.336 937.275 629.649 937.279 629.988C937.283 630.326 937.471 630.636 937.769 630.795L942.133 633.316C942.345 633.438 942.596 633.47 942.832 633.405C943.068 633.341 943.268 633.185 943.388 632.972L943.397 632.956C943.647 632.519 943.496 631.962 943.06 631.711L938.696 629.191Z" fill="#AC7DFD"/>
<path fill-rule="evenodd" clip-rule="evenodd" d="M946.765 621.807C946.605 621.509 946.295 621.321 945.957 621.317C945.618 621.314 945.304 621.495 945.139 621.79C944.973 622.085 944.981 622.447 945.16 622.734L947.679 627.094C947.931 627.531 948.489 627.682 948.927 627.431L948.944 627.422C949.156 627.302 949.312 627.102 949.377 626.867C949.441 626.631 949.409 626.38 949.287 626.168L946.765 621.807Z" fill="#AC7DFD"/>
<path fill-rule="evenodd" clip-rule="evenodd" d="M956.531 625.417C956.774 625.418 957.007 625.322 957.178 625.151C957.35 624.979 957.447 624.747 957.447 624.504V619.444C957.447 619.113 957.27 618.807 956.984 618.641C956.697 618.476 956.343 618.476 956.056 618.641C955.769 618.807 955.593 619.113 955.593 619.444V624.504C955.593 624.747 955.689 624.979 955.861 625.15C956.033 625.322 956.266 625.418 956.508 625.417H956.531Z" fill="#AC7DFD"/>
<path d="M1008.24 800.921H1001.4V834.742H1008.24V800.921Z" fill="#AC7DFD"/>
<path d="M999.435 812.05H992.601V834.743H999.435V812.05Z" fill="#AC7DFD"/>
<path d="M990.632 818.695H983.798V834.743H990.632V818.695Z" fill="#AC7DFD"/>
<path d="M981.83 824.246H974.995V834.742H981.83V824.246Z" fill="#AC7DFD"/>
<path d="M973.027 828.539H966.193V834.742H973.027V828.539Z" fill="#AC7DFD"/>
<path d="M985.129 804.062L987.147 802.751L986.612 800.513L984.218 800.257L983.153 798.79L983.653 796.437L981.691 795.234L979.818 796.744L978.027 796.459L976.714 794.442L974.474 794.977L974.218 797.368L972.751 798.433L970.397 797.934L969.192 799.894L970.703 801.766L970.418 803.556L968.4 804.867L968.935 807.105L971.328 807.361L972.394 808.829L971.895 811.181L973.856 812.385L975.73 810.874L977.521 811.159L978.834 813.176L981.073 812.642L981.329 810.25L982.798 809.185L985.151 809.684L986.356 807.724L984.845 805.851L985.129 804.062ZM980.693 807.834C979.064 809.015 976.884 809.099 975.169 808.047C973.454 806.995 972.542 805.014 972.858 803.029C973.175 801.043 974.657 799.443 976.614 798.975C978.571 798.507 980.617 799.263 981.799 800.89C983.412 803.113 982.917 806.222 980.693 807.834H980.693Z" fill="#AACEF2"/>
<path d="M981.517 804.06C981.655 801.992 980.09 800.204 978.021 800.066C975.952 799.928 974.163 801.492 974.025 803.56C973.887 805.627 975.452 807.415 977.521 807.553C979.59 807.691 981.379 806.127 981.517 804.06Z" fill="#9082B5"/>
<path fill-rule="evenodd" clip-rule="evenodd" d="M1003.74 789.882C995.722 806.137 982.719 817.515 966.111 822.87V825.42C983.717 819.967 997.478 808.053 1005.91 790.952L1003.74 789.882Z" fill="#FF73B7"/>
<path fill-rule="evenodd" clip-rule="evenodd" d="M1006.92 794.121L1009.56 780.802L1000.61 791.014L1006.92 794.121Z" fill="#FF73B7"/>
<path fill-rule="evenodd" clip-rule="evenodd" d="M471.45 894.343L468.3 894.162L467.018 897.2L464.671 898.017L461.778 896.434L459.424 898.532L460.667 901.585L459.586 903.822L456.42 904.747L456.239 907.895L459.278 909.175L460.096 911.521L458.512 914.412L460.612 916.764L463.667 915.522L465.906 916.602L466.831 919.766L469.981 919.947L471.262 916.909L473.61 916.092L476.503 917.675L478.857 915.577L477.613 912.524L478.695 910.287L481.86 909.362L482.041 906.214L479.002 904.934L478.184 902.588L479.769 899.697L477.669 897.345L474.613 898.587L472.375 897.507L471.45 894.343Z" fill="#FF73B7"/>
<path fill-rule="evenodd" clip-rule="evenodd" d="M458.064 902.434L456.866 899L453.062 898.976L451.154 896.838L451.565 893.058L448.288 891.476L445.581 894.149L442.718 893.985L440.335 891.022L436.898 892.219L436.874 896.021L434.734 897.928L430.952 897.516L429.369 900.791L432.043 903.497L431.879 906.357L428.914 908.739L430.111 912.174L433.916 912.198L435.824 914.336L435.413 918.115L438.69 919.697L441.397 917.024L444.259 917.189L446.643 920.152L450.08 918.955L450.104 915.153L452.244 913.246L456.026 913.658L457.609 910.382L454.934 907.677L455.098 904.816L458.064 902.434Z" fill="#AACEF2"/>
<path fill-rule="evenodd" clip-rule="evenodd" d="M435.637 905.134C435.454 908.308 437.203 911.278 440.067 912.661C442.931 914.044 446.347 913.566 448.721 911.451C451.095 909.336 451.961 906 450.914 902.998C449.867 899.997 447.113 897.921 443.938 897.739C439.602 897.491 435.886 900.802 435.637 905.134Z" fill="white"/>
<path fill-rule="evenodd" clip-rule="evenodd" d="M461.921 906.641C461.754 909.559 463.361 912.29 465.995 913.561C468.628 914.832 471.768 914.393 473.951 912.448C476.134 910.503 476.93 907.436 475.967 904.676C475.004 901.917 472.473 900.009 469.553 899.842C465.567 899.614 462.15 902.658 461.921 906.641Z" fill="white"/>
<path d="M462.864 889.8C462.882 887.022 460.806 885.517 458.798 884.062C458.666 883.966 458.538 883.872 458.406 883.777L458.449 877.187C459.785 877.482 460.092 878.555 460.086 879.479L460.084 879.842L462.889 879.859V879.692C462.91 876.441 460.657 875.451 458.46 875.255L458.472 873.309L456.699 873.298L456.686 875.247C454.511 875.431 452.291 876.409 452.27 879.624C452.252 882.4 454.328 883.906 456.336 885.362C456.432 885.433 456.526 885.501 456.621 885.571L456.578 892.205C455.215 891.908 454.9 890.853 454.906 889.945L454.912 888.999L452.104 888.981L452.1 889.733C452.079 892.97 454.347 893.966 456.566 894.168L456.556 895.672L458.329 895.683L458.339 894.179C460.563 894.004 462.843 893.04 462.864 889.8ZM455.295 879.447C455.3 878.595 455.58 877.625 456.677 877.26L456.644 882.321C455.841 881.517 455.287 880.616 455.295 879.447ZM458.354 892.155L458.388 886.995C459.25 887.825 459.852 888.754 459.844 889.975C459.839 890.833 459.537 891.811 458.356 892.155H458.354Z" fill="#FF73B7"/>
<path fill-rule="evenodd" clip-rule="evenodd" d="M437.563 905.245C437.425 907.64 438.745 909.882 440.906 910.926C443.067 911.969 445.645 911.609 447.437 910.013C449.229 908.417 449.882 905.899 449.092 903.634C448.302 901.369 446.224 899.802 443.828 899.665C442.256 899.575 440.714 900.112 439.539 901.158C438.364 902.205 437.653 903.675 437.563 905.245Z" fill="#FF90C6"/>
<path fill-rule="evenodd" clip-rule="evenodd" d="M463.754 906.747C463.629 908.924 464.828 910.961 466.793 911.91C468.757 912.858 471.1 912.531 472.728 911.08C474.357 909.629 474.951 907.341 474.232 905.282C473.514 903.223 471.626 901.799 469.448 901.675C466.474 901.504 463.925 903.775 463.754 906.747Z" fill="#9082B5"/>
<path d="M511.988 665.055V704.711H456.649V665.055H511.988ZM514.163 662.881H454.474V706.883H514.162V662.882L514.163 662.881Z" fill="#9082B5"/>
<path fill-rule="evenodd" clip-rule="evenodd" d="M465.118 698.164L464.037 697.558L469.66 687.523L476.62 685.789L480.139 679.077L487.812 678.328L491.768 680.936L495.37 676.817L504.404 671.091L505.067 672.137L496.11 677.814L491.991 682.567L487.495 679.602L480.923 680.244L477.458 686.856L470.478 688.595L465.118 698.164Z" fill="#FF73B7"/>
<path fill-rule="evenodd" clip-rule="evenodd" d="M464.953 698.355L464.204 697.369L471.146 692.095L478.477 691.179L483.199 684.634L489.038 685.172L491.713 688.708L498.653 683.124L504.537 681.164L504.929 682.338L499.152 684.262L491.499 690.477L488.379 686.354L483.789 685.931L479.163 692.34L471.626 693.281L464.953 698.355Z" fill="#AC7DFD"/>
<path fill-rule="evenodd" clip-rule="evenodd" d="M501.695 698.382H464.059V672.187H464.577V697.864H501.695V698.382Z" fill="#423565"/>
<path fill-rule="evenodd" clip-rule="evenodd" d="M463.231 672.431L464.318 668.379L465.405 672.431H463.231Z" fill="#423565"/>
<path fill-rule="evenodd" clip-rule="evenodd" d="M501.544 699.158L505.414 698.122L501.544 697.085V699.158Z" fill="#423565"/>
</svg>
