<svg width="708" height="573" viewBox="0 0 708 573" fill="none" xmlns="http://www.w3.org/2000/svg">
<path fill-rule="evenodd" clip-rule="evenodd" d="M707.058 558.228H422.903C398.135 542.747 389.317 510.915 402.594 484.91C415.87 458.906 446.836 447.356 473.916 458.309C482.196 446.918 494.91 439.556 508.917 438.042C522.925 436.528 536.92 441.003 547.446 450.362C560.462 422.358 593.187 409.501 621.803 421.148C650.418 432.796 664.841 464.843 654.573 493.965C670.577 494.207 685.658 501.5 695.779 513.892C705.9 526.284 710.028 542.51 707.058 558.228V558.228Z" fill="#E3EEFF"/>
<path fill-rule="evenodd" clip-rule="evenodd" d="M326.547 184.533L292.869 515.649L397.24 504.709L357.525 181.065L326.547 184.533Z" fill="#E3EEFF"/>
<path fill-rule="evenodd" clip-rule="evenodd" d="M450.57 535.961C455.178 523.294 452.695 509.134 444.05 498.788C450.45 493.098 453.633 484.622 452.559 476.129C451.486 467.637 446.295 460.218 438.681 456.296C448.868 444.853 451.191 428.42 444.575 414.605C437.959 400.79 423.694 392.289 408.386 393.04C393.078 393.791 379.715 403.645 374.484 418.042C373.701 420.205 373.114 422.434 372.729 424.701C353.623 414.531 329.893 421.134 318.797 439.708C307.701 458.282 313.143 482.289 331.167 494.27C323.565 500.569 318.982 509.786 318.55 519.646C318.119 529.505 321.879 539.087 328.902 546.026C326.658 549.802 325.061 553.927 324.176 558.23H428.898C438.984 554.258 446.877 546.147 450.57 535.961Z" fill="#E3EEFF"/>
<path fill-rule="evenodd" clip-rule="evenodd" d="M299.753 443.994C301.734 441.068 303.261 437.86 304.282 434.479C309.354 417.792 301.459 400.622 286.649 396.134C273.248 392.067 258.779 399.786 252.396 413.657C239.932 413.27 227.82 422.317 223.585 436.252C220.143 447.59 222.836 459.145 229.648 466.616C223.585 468.922 218.426 474.305 216.236 481.524C212.701 493.152 218.205 505.117 228.521 508.244C229.419 508.511 230.338 508.704 231.269 508.821C231.243 508.899 231.21 508.974 231.188 509.055C227.383 521.569 233.305 534.445 244.41 537.813C255.516 541.181 267.603 533.765 271.402 521.254C272.071 519.055 272.45 516.779 272.529 514.483C272.815 514.577 273.09 514.677 273.372 514.764C291.132 520.153 310.459 508.294 316.54 488.276C322.1 469.97 314.649 451.189 299.753 443.994Z" fill="#E3EEFF"/>
<path fill-rule="evenodd" clip-rule="evenodd" d="M314.89 501.757C314.34 481.434 302.873 462.984 284.886 453.484C266.899 443.984 245.185 444.909 228.072 455.903C228.069 455.686 228.075 455.471 228.069 455.254C227.416 430.855 210.467 409.927 186.724 404.202C162.981 398.477 138.347 409.378 126.631 430.795C115.727 425.281 102.804 425.491 92.0838 431.355C81.3638 437.219 74.2231 447.984 72.994 460.135C46.4779 450.416 16.9341 462.637 5.04937 488.24C-6.83538 513.843 2.90912 544.276 27.4597 558.229H270.77C297.109 552.388 315.609 528.709 314.89 501.757Z" fill="#E3EEFF"/>
<path fill-rule="evenodd" clip-rule="evenodd" d="M332.731 187.093L305.576 485.047L379.807 474.023L353.361 183.985L332.731 187.093Z" fill="white"/>
<path fill-rule="evenodd" clip-rule="evenodd" d="M660.088 558.228H23.134C22.9928 541.228 30.8341 525.145 44.3186 514.779C57.8032 504.414 75.371 500.966 91.777 505.464C93.243 505.866 94.6839 506.326 96.0997 506.847C97.3277 494.696 104.468 483.93 115.189 478.065C125.909 472.201 138.832 471.992 149.737 477.507C158.161 462.105 173.55 451.756 191 449.757C208.45 447.758 225.784 454.359 237.477 467.457C240.735 460.511 246.332 455.138 253.208 452.733C254.165 437.491 264.884 425.086 278.853 424.06C294.289 422.919 307.839 436.098 309.117 453.49C309.384 457.013 309.116 460.556 308.322 463.999C312.206 464.33 315.993 465.394 319.48 467.135C330.885 449.331 354.073 443.283 372.731 453.246C373.115 450.978 373.702 448.748 374.485 446.585C381.747 426.968 403.498 416.895 423.169 424.037C442.841 431.18 453.047 452.857 446.014 472.556C445.939 472.759 445.852 472.957 445.777 473.16C458.021 470.926 470.661 472.825 481.706 478.559C484.824 480.176 487.784 482.079 490.551 484.242C501.662 475.587 515.918 472.029 529.797 474.449C543.676 476.868 555.884 485.039 563.406 496.943C570.692 488.576 580.232 482.479 590.888 479.379C591.585 479.177 592.283 478.987 592.988 478.813C614.43 473.429 637.069 480.718 651.332 497.599C665.596 514.48 668.993 538.005 660.088 558.227V558.228Z" fill="white"/>
<path fill-rule="evenodd" clip-rule="evenodd" d="M150.549 560.63H185.867C185.867 560.63 191.542 544.248 188.388 538.26L176.45 537.314C175.948 540.008 173.474 549.514 163.476 550.866C151.812 552.439 150.549 560.63 150.549 560.63Z" fill="#353B6E"/>
<path fill-rule="evenodd" clip-rule="evenodd" d="M278.496 560.629H243.179C243.179 560.629 237.503 544.248 240.657 538.259L252.596 537.313C253.097 540.007 255.571 549.513 265.57 550.864C277.234 552.438 278.496 560.629 278.496 560.629Z" fill="#353B6E"/>
<path fill-rule="evenodd" clip-rule="evenodd" d="M172.108 326.828C172.108 326.828 165.471 426.686 165.839 451.377C166.208 476.067 166.945 544.971 166.945 544.971H197.182C197.182 544.971 190.544 472.749 190.913 453.956C191.282 435.163 203.819 359.993 203.819 359.993C203.819 359.993 220.781 435.163 223.362 447.323C225.944 459.484 234.425 543.129 234.425 543.129H259.13C259.13 543.129 253.477 451.131 250.158 431.602C246.839 412.072 232.95 324.618 232.95 324.618L172.108 326.828Z" fill="#FF90C6"/>
<path fill-rule="evenodd" clip-rule="evenodd" d="M199.432 297.752L194.812 317.234C194.812 317.234 141.927 312.23 134.91 302.83C133.234 300.582 134.264 295.792 136.813 289.797C143.645 273.701 159.726 247.58 165.102 240.236C166.146 238.813 169.439 239.318 171.205 239.222C204.137 237.487 160.707 288.061 159.21 289.797C159.184 289.826 159.169 289.841 159.169 289.841L199.432 297.752Z" fill="#404884"/>
<path fill-rule="evenodd" clip-rule="evenodd" d="M267.299 311.21C267.125 311.548 266.93 311.875 266.716 312.19C264.496 315.455 259.699 317.894 249.371 314.172C229.204 306.898 216.236 291.578 216.236 291.578L224.96 280.401L245.241 293.053L245.137 292.898L231.723 272.912C231.723 272.912 224.503 247.663 239.219 240.238C242.593 238.539 249.002 253.783 267.682 302.762C268.759 305.505 268.619 308.576 267.299 311.21Z" fill="#404884"/>
<path fill-rule="evenodd" clip-rule="evenodd" d="M165.103 240.235C165.656 238.576 182.104 232.762 199.396 233.97C216.973 235.199 241.309 238.884 241.064 240.603C239.741 249.857 233.689 309.141 232.951 324.617C232.951 324.617 202.346 341.938 172.11 326.827L165.103 240.235Z" fill="#353B6E"/>
<path fill-rule="evenodd" clip-rule="evenodd" d="M214.551 205.165C214.551 205.165 215.984 198.78 215.014 196.924C214.045 195.068 213.354 192.433 209.217 191.915C205.08 191.397 200.551 193.437 196.981 196.809C193.411 200.18 184.02 202.571 188.2 213.231C192.38 223.891 201.288 221.973 201.586 225.685L206.541 217.584L214.551 205.165Z" fill="#423565"/>
<path fill-rule="evenodd" clip-rule="evenodd" d="M214.205 203.108C214.205 203.108 227.692 221.783 214.707 224.685C206.66 226.484 201.93 221.502 201.93 221.502C201.93 221.502 199.476 223.245 197.347 217.796C196.083 214.558 199.64 211.452 201.501 216.563C201.501 216.563 204.768 216.516 203.921 211.922C203.074 207.329 205.438 206.779 208.178 206.743C210.919 206.707 214.253 204.573 214.205 203.108Z" fill="#FFD5C0"/>
<path fill-rule="evenodd" clip-rule="evenodd" d="M194.048 229.365L209.966 231.269C209.966 231.269 207.385 241.74 201.239 240.357C195.093 238.974 194.048 229.365 194.048 229.365Z" fill="#353B6E"/>
<path fill-rule="evenodd" clip-rule="evenodd" d="M200.443 216.88C200.443 216.88 199.033 226.395 196.161 230.672C196.161 230.672 190.998 239.576 200.502 240.602C209.596 241.585 207.043 235.655 207.244 234.85C207.446 234.045 211.274 223.271 211.274 223.271C211.274 223.271 211.375 212.804 200.443 216.88Z" fill="#FFD5C0"/>
<path fill-rule="evenodd" clip-rule="evenodd" d="M194.049 229.365L201.792 240.665L196.815 247.728L189.01 233.664L194.049 229.365Z" fill="#404884"/>
<path fill-rule="evenodd" clip-rule="evenodd" d="M201.792 240.666L209.966 231.27L212.67 235.077L208.183 249.511L201.792 240.666Z" fill="#404884"/>
<path fill-rule="evenodd" clip-rule="evenodd" d="M202.959 302.94V291.148H208.245V303.186L202.959 302.94Z" fill="#CDE2FF"/>
<path d="M205.787 292.744C208.434 292.744 210.581 290.6 210.581 287.954C210.581 285.309 208.434 283.164 205.787 283.164C203.14 283.164 200.994 285.309 200.994 287.954C200.994 290.6 203.14 292.744 205.787 292.744Z" fill="#FF90C6"/>
<path d="M220.291 300.852H192.144V308.221H220.291V300.852Z" fill="#AC7DFD"/>
<path fill-rule="evenodd" clip-rule="evenodd" d="M183.601 299.193L192.204 300.39C192.204 300.39 197.367 296.705 198.473 297.35C199.579 297.995 204.741 298.916 205.11 298.64C205.11 298.64 205.387 300.943 202.16 300.943C198.934 300.943 192.143 300.851 192.143 300.851V308.221H209.903C209.903 308.221 206.4 312.366 203.081 312.827C199.763 313.287 189.991 310.247 189.991 310.247L178.744 308.866C178.744 308.866 171.615 297.811 183.601 299.193Z" fill="#FFD5C0"/>
<path fill-rule="evenodd" clip-rule="evenodd" d="M191.037 296.614L186.243 314.055C186.243 314.055 141.927 312.23 134.91 302.829C133.234 300.581 134.264 295.791 136.813 289.796H159.209C159.183 289.825 159.168 289.84 159.168 289.84L191.037 296.614Z" fill="#404884"/>
<path fill-rule="evenodd" clip-rule="evenodd" d="M228.986 283.809L216.189 275.017C214.986 274.19 213.427 274.09 212.128 274.755L203.082 279.388L198.104 289.061L202.806 294.68C202.806 294.68 204.189 293.575 202.53 291.732C200.871 289.889 200.871 289.059 200.871 289.059L204.005 282.611L209.996 283.993L208.337 289.151C208.337 289.151 203.451 291.454 204.188 293.112L211.655 291.27L215.159 285.098L224.285 291.362C224.285 291.362 235.9 293.113 228.986 283.809Z" fill="#FFD5C0"/>
<path fill-rule="evenodd" clip-rule="evenodd" d="M266.716 312.19C264.496 315.455 259.358 318.728 249.371 314.172C229.325 305.028 220.167 296.983 220.167 296.983L224.96 280.4L245.24 293.052L245.137 292.897L266.716 312.19Z" fill="#404884"/>
<path fill-rule="evenodd" clip-rule="evenodd" d="M482.668 255.785C482.668 255.785 449.603 271.992 467.958 289.204C473.867 294.104 491.594 293.099 491.594 293.099L489.709 261.062L482.668 255.785Z" fill="#353B6E"/>
<path fill-rule="evenodd" clip-rule="evenodd" d="M494.996 258.676C494.996 258.676 530.45 272.495 512.095 289.708C506.186 294.607 488.458 293.602 488.458 293.602L490.344 261.565L494.996 258.676Z" fill="#353B6E"/>
<path fill-rule="evenodd" clip-rule="evenodd" d="M480.638 263.323C480.638 263.323 477.369 287.194 491.325 287.194C505.28 287.194 502.891 262.946 502.891 262.946L480.638 263.323Z" fill="#FFD5C0"/>
<path d="M493.369 281.038H489.984C487.621 281.038 485.705 282.953 485.705 285.315V303.647C485.705 306.009 487.621 307.924 489.984 307.924H493.369C495.732 307.924 497.648 306.009 497.648 303.647V285.315C497.648 282.953 495.732 281.038 493.369 281.038Z" fill="#FFD5C0"/>
<path d="M493.794 434.439C515.354 434.439 532.831 422.711 532.831 408.244C532.831 393.777 515.354 382.049 493.794 382.049C472.235 382.049 454.757 393.777 454.757 408.244C454.757 422.711 472.235 434.439 493.794 434.439Z" fill="#FF73B7"/>
<path fill-rule="evenodd" clip-rule="evenodd" d="M473.239 474.767L473.994 499.894C473.994 499.894 471.228 516.227 476.005 520.749C480.782 525.272 485.308 500.649 485.308 500.649L486.063 472.507L473.239 474.767Z" fill="#FFD5C0"/>
<path fill-rule="evenodd" clip-rule="evenodd" d="M490.212 474.767L490.966 499.894C490.966 499.894 488.201 516.227 492.978 520.749C497.755 525.272 502.281 500.649 502.281 500.649L503.036 472.507L490.212 474.767Z" fill="#FFD5C0"/>
<path fill-rule="evenodd" clip-rule="evenodd" d="M495.114 393.732C544.9 394.766 530.568 484.073 530.568 484.073C530.568 484.073 502.657 487.004 485.685 487.521C468.713 488.039 452.494 485.107 452.494 485.107C452.494 485.107 448.729 392.77 495.114 393.732Z" fill="#FF90C6"/>
<path fill-rule="evenodd" clip-rule="evenodd" d="M610.025 392.325V384.687H591.217C571.294 380.593 537.658 377.903 499.516 377.903C461.374 377.903 427.736 380.593 407.814 384.687H388.754V393.608H388.777C389.74 402.026 438.946 408.81 499.515 408.81C560.687 408.81 610.276 401.891 610.276 393.356C610.27 392.998 610.185 392.646 610.025 392.325Z" fill="#353B6E"/>
<path d="M499.515 400.141C560.687 400.141 610.277 393.222 610.277 384.687C610.277 376.153 560.687 369.234 499.515 369.234C438.343 369.234 388.754 376.153 388.754 384.687C388.754 393.222 438.343 400.141 499.515 400.141Z" fill="#AC7DFD"/>
<path fill-rule="evenodd" clip-rule="evenodd" d="M459.284 303.654C459.284 303.654 436.78 357.803 435.019 365.089C433.368 371.929 431.75 377.151 452.746 377.151H475V364.713L451.741 361.697L462.93 330.917C462.93 330.917 479.022 301.895 459.284 303.654Z" fill="#FFD5C0"/>
<path fill-rule="evenodd" clip-rule="evenodd" d="M528.3 303.654C528.3 303.654 550.803 357.803 552.564 365.089C554.216 371.929 555.833 377.151 534.837 377.151H512.583V364.713L535.842 361.697L524.653 330.917C524.653 330.917 508.561 301.895 528.3 303.654Z" fill="#FFD5C0"/>
<path fill-rule="evenodd" clip-rule="evenodd" d="M459.284 303.653L432.38 344.359L455.01 353.404L461.296 336.569C461.296 336.569 471.229 302.397 459.284 303.653Z" fill="#FF90C6"/>
<path fill-rule="evenodd" clip-rule="evenodd" d="M528.164 303.371L555.068 344.076L532.438 353.122L526.152 336.287C526.152 336.287 516.221 302.114 528.164 303.371Z" fill="#FF90C6"/>
<path fill-rule="evenodd" clip-rule="evenodd" d="M528.127 303.399C528.127 305.412 519.86 376.27 519.86 376.27H465.888C465.888 376.27 456.891 307.674 459.324 303.652C460.637 301.481 468.368 299.86 475.202 298.827C481.018 297.945 486.189 297.497 486.189 297.497L496.765 297.621C496.765 297.621 503.139 298.387 510.141 299.415C518.671 300.663 528.127 302.295 528.127 303.399Z" fill="#FF90C6"/>
<path d="M523.214 331.543H462.302V380.541H523.214V331.543Z" fill="#DDDDDD"/>
<path d="M523.214 380.541H462.302V382.708H523.214V380.541Z" fill="#AFAFAF"/>
<path fill-rule="evenodd" clip-rule="evenodd" d="M511.239 299.57C511.239 299.57 505.675 317.033 492.286 317.033C478.897 317.033 473.994 299.067 473.994 299.067C474.122 298.837 485.969 297.277 485.969 297.277L497.378 297.214L511.239 299.57Z" fill="#FFD5C0"/>
<path fill-rule="evenodd" clip-rule="evenodd" d="M480.163 267.353C480.163 267.353 497.161 272.56 505.644 265.776C513.259 259.686 502.671 250.56 484.88 255.155C479.586 256.523 475.108 260.183 472.989 265.219C470.974 270.004 471.112 275.824 480.468 279.278C480.468 279.279 479.085 276.389 480.163 267.353Z" fill="#353B6E"/>
<path fill-rule="evenodd" clip-rule="evenodd" d="M473.581 513.649C473.581 513.649 455.524 520.04 454.772 524.551C454.019 529.062 482.985 524.175 482.985 524.175C482.985 524.175 484.866 506.131 473.581 513.649Z" fill="#485194"/>
<path fill-rule="evenodd" clip-rule="evenodd" d="M498.363 513.649C498.363 513.649 516.42 520.04 517.172 524.551C517.924 529.062 488.959 524.175 488.959 524.175C488.959 524.175 487.077 506.131 498.363 513.649Z" fill="#485194"/>
<path fill-rule="evenodd" clip-rule="evenodd" d="M316.267 569.632C316.173 569.977 316.072 570.321 315.967 570.665C310.347 571.321 304.86 571.948 299.508 572.546C299.508 571.591 299.459 570.617 299.369 569.631H79.783C75.2877 556.399 80.3604 550.093 80.3604 550.093C84.166 545.361 91.1022 544.907 94.6563 544.949C92.3779 535.771 91.4085 526.317 91.7769 516.868C93.1342 485.036 110.68 462.62 127.252 460.372C137.398 458.993 149.317 464.883 159.724 475.872C166.972 483.526 173.484 493.653 178.148 505.519C191.165 487.048 214.04 478.423 235.335 483.8C254.524 488.647 269.543 504.136 274.223 523.803C276.541 523.271 291.406 520.101 303.958 529.52C315.573 538.232 320.561 554.218 316.267 569.632Z" fill="#FFCAE7"/>
<path fill-rule="evenodd" clip-rule="evenodd" d="M679.24 547.415C678.776 554.807 678.475 559.588 677.736 563.009C676.31 554.497 672.356 546.359 665.577 541.784C664.717 541.205 663.817 540.685 662.885 540.229C663.966 550.262 662.386 560.403 658.304 569.633H466.226C454.937 563.848 447.548 556.954 446.063 549.056C443.967 537.895 453.16 522.073 465.221 514.051C478.73 505.071 494.207 506.952 500.254 508.034C501.647 500.03 504.961 492.482 509.912 486.038C516.494 477.398 525.831 471.263 536.378 468.65C556.365 463.798 577.777 472.745 589.104 490.785C589.61 491.594 590.102 492.418 590.566 493.265C590.768 492.223 590.981 491.208 591.203 490.219C597.273 463.164 610.411 456.072 621.711 456.364C634.425 456.69 650.576 468.919 650.776 507.487C663.46 497.708 669.459 499.39 671.577 500.376C681.898 505.176 680.29 530.735 679.24 547.415Z" fill="#FFCAE7"/>
<path fill-rule="evenodd" clip-rule="evenodd" d="M374.431 192.131L371.372 192.184L368.189 180.331L366.983 175.84L325.228 176.569L324.057 181.102L345.144 180.734L324.057 181.103L320.968 193.065L317.908 193.118C317.238 193.13 316.626 193.498 316.302 194.084C315.977 194.669 315.99 195.384 316.335 195.958C316.679 196.532 317.304 196.878 317.973 196.866L374.497 195.879C375.166 195.867 375.778 195.499 376.103 194.914C376.427 194.328 376.415 193.614 376.07 193.04C375.725 192.466 375.101 192.119 374.431 192.131L374.431 192.131Z" fill="#AC7DFD"/>
<path fill-rule="evenodd" clip-rule="evenodd" d="M345.821 176.374L315.345 176.907C313.024 176.948 310.781 176.064 309.112 174.451C307.442 172.838 306.482 170.628 306.442 168.306L304.666 106.264C304.382 89.9969 309.278 51.7193 318.16 38.0875L343.399 37.647L368.641 37.2061L368.644 37.2075C377.991 50.5196 383.972 85.322 384.256 101.586L384.895 166.936C384.936 169.257 384.053 171.5 382.44 173.17C380.828 174.84 378.618 175.801 376.298 175.841L345.821 176.374V176.374Z" fill="#FBFAFF"/>
<mask id="mask0_36_11654" style="mask-type:alpha" maskUnits="userSpaceOnUse" x="304" y="37" width="82" height="140">
<path d="M345.847 176.177L315.265 176.709C312.936 176.75 310.686 175.867 309.01 174.255C307.335 172.643 306.371 170.433 306.331 168.113L304.55 106.106C304.265 89.848 309.178 51.5919 318.09 37.9678L343.417 37.5276L368.747 37.0869L368.749 37.0883C378.129 50.393 384.13 85.1757 384.415 101.431L385.057 166.744C385.098 169.064 384.211 171.305 382.593 172.974C380.975 174.643 378.758 175.603 376.429 175.644L345.847 176.176V176.177Z" fill="white"/>
</mask>
<g mask="url(#mask0_36_11654)">
<path fill-rule="evenodd" clip-rule="evenodd" d="M358.828 33.7654C359.529 33.7893 359.97 35.0522 360.516 35.9844C365.66 44.8081 370.114 54.1455 372.426 64.1355C376.87 83.3323 376.06 103.465 376.17 122.974C376.241 140.736 376.846 158.317 375.978 176.71C375.978 176.71 376.063 177.264 375.748 177.511C375.429 177.758 374.922 177.709 374.859 177.052C376.068 152.801 375.14 128.797 374.899 103.369C374.694 84.9305 373.818 65.9679 366.135 49.0418C363.879 44.0694 361.216 39.296 358.416 34.59C358.415 34.5896 358.172 33.9322 358.828 33.7654ZM377.44 167.321C377.848 167.095 378.425 167.352 378.403 167.814C378.363 168.6 376.179 168.044 377.44 167.321H377.44ZM377.75 158.254C378.264 157.96 378.966 158.992 378.245 159.405C377.69 159.724 377.089 158.641 377.75 158.255V158.254ZM377.328 146.37C377.939 146.023 378.561 146.991 377.954 147.399C377.437 147.747 376.701 146.733 377.328 146.371L377.328 146.37ZM312.023 146.37C312.634 146.023 313.256 146.991 312.649 147.399C312.133 147.747 311.396 146.733 312.023 146.371L312.023 146.37ZM326.649 32.6173C328.133 32.4844 326.798 34.2875 326.04 35.7537C322.138 43.356 318.951 51.3167 317.253 59.6438C314.115 75.0445 314.579 90.8826 314.794 106.486C315.136 131.34 316.466 156.147 318.007 180.89C318.007 180.89 318.12 181.194 317.717 181.408C317.405 181.573 317.029 181.53 316.909 180.958C315.052 151.113 313.478 121.082 313.545 91.2155C313.582 74.3588 314.915 57.0438 321.864 41.7908C323.238 38.777 324.752 35.83 326.289 32.8965C326.386 32.7774 326.51 32.6819 326.649 32.6173H326.649ZM313.226 172.4C313.747 172.105 314.596 173.707 313.423 173.474C312.9 173.372 313.182 172.427 313.226 172.401L313.226 172.4ZM377.583 134.515C378.082 134.23 378.924 135.131 378.249 135.545C377.749 135.853 376.87 134.93 377.583 134.515L377.583 134.515ZM312.708 163.123C313.352 162.762 314.087 164.689 312.849 164.175C312.459 164.011 312.239 163.393 312.709 163.122L312.708 163.123ZM376.679 103.734C377.15 103.464 377.961 104.239 377.307 104.675C376.838 104.989 375.938 104.163 376.679 103.734ZM312.37 135.75C312.9 135.447 313.673 136.639 312.838 136.851C312.318 136.983 311.774 136.097 312.37 135.75ZM377.251 93.8145C377.441 93.7266 377.661 93.7286 377.85 93.8201C378.038 93.9115 378.176 94.0827 378.224 94.2862C378.349 94.8546 377.211 95.2566 376.988 94.4389C376.927 94.204 377.025 93.9566 377.23 93.8262L377.251 93.8145ZM377.05 85.3204C377.601 85.0023 378.436 86.5081 377.273 86.3533C376.821 86.2929 376.585 85.5909 377.05 85.3208L377.05 85.3204ZM311.72 121.389C312.253 121.084 313.151 122.647 311.946 122.459C311.498 122.391 311.25 121.662 311.72 121.39L311.72 121.389ZM377.693 121.389C378.226 121.084 379.123 122.647 377.918 122.459C377.471 122.391 377.223 121.662 377.693 121.39L377.693 121.389ZM375.847 75.4046C375.899 75.3752 375.956 75.3539 376.014 75.3414C376.729 75.2037 377.416 76.6556 376.257 76.4206C375.928 76.3506 375.115 75.8295 375.847 75.4053L375.847 75.4046ZM311.539 108.446C311.912 108.237 312.398 108.82 312.398 108.82C312.561 109.145 312.49 109.57 312.142 109.696C311.86 109.795 311.55 109.655 311.44 109.378C311.396 109.261 311.366 109.545 311.271 109.013C311.236 108.796 311.333 108.579 311.518 108.459L311.539 108.446ZM374.825 65.4611C375.341 65.1679 376.114 65.9622 375.559 66.3742C375.048 66.7536 374.167 65.8455 374.826 65.4609L374.825 65.4611ZM312.772 65.4611C313.287 65.1679 314.06 65.9622 313.506 66.3742C312.995 66.7536 312.113 65.8455 312.772 65.4609L312.772 65.4611ZM311.498 96.4067C312.014 96.1077 312.851 97.1955 311.913 97.4198C311.421 97.5369 310.912 96.7472 311.498 96.4067ZM373.428 57.9594C373.985 57.6437 374.884 59.0622 373.687 59.0274C373.204 59.0133 372.931 58.2457 373.428 57.9594ZM313.871 57.9594C314.427 57.6437 315.326 59.0622 314.13 59.0274C313.647 59.0133 313.373 58.2457 313.871 57.9594ZM311.35 83.3228C311.893 83.0105 312.663 84.2464 311.759 84.401C311.244 84.4893 310.83 83.6256 311.35 83.3228ZM370.311 48.7046C370.811 48.4233 371.473 49.2486 370.8 49.7409C370.307 50.1019 369.475 49.183 370.311 48.7046ZM316.46 48.7046C316.96 48.4233 317.621 49.2486 316.949 49.7409C316.456 50.1019 315.624 49.183 316.46 48.7046ZM312.066 73.7535C312.646 73.4247 313.426 75.5053 312.085 74.7243C311.919 74.6208 311.816 74.4404 311.812 74.2447C311.808 74.049 311.903 73.8645 312.066 73.7544V73.7535Z" fill="#AACEF2"/>
</g>
<path fill-rule="evenodd" clip-rule="evenodd" d="M343.169 37.4783L317.85 37.9193C317.85 37.9193 340.693 1.51788 344.073 0.863097C347.248 0.247999 368.492 37.0367 368.492 37.0367L343.169 37.4783Z" fill="#FF90C6"/>
<path fill-rule="evenodd" clip-rule="evenodd" d="M368.425 96.6255C368.657 109.99 358.005 121.012 344.631 121.245C331.258 121.478 320.227 110.833 319.994 97.4689C319.761 84.1046 330.413 73.0817 343.786 72.8484C350.209 72.7363 356.413 75.1784 361.034 79.6375C365.654 84.0966 368.313 90.2074 368.425 96.6255Z" fill="#FF90C6"/>
<path fill-rule="evenodd" clip-rule="evenodd" d="M363.798 96.3913C363.715 91.4531 361.755 86.7308 358.314 83.1787C358.33 83.5647 358.355 83.9487 358.362 84.3385C358.584 96.3146 353.866 107.856 345.311 116.265C355.823 115.66 363.982 106.889 363.798 96.3913Z" fill="#AACEF2"/>
<path fill-rule="evenodd" clip-rule="evenodd" d="M358.362 84.6634C358.356 84.2747 358.329 83.8915 358.315 83.506C355.519 80.573 351.882 78.5904 347.911 77.835C347.959 78.368 347.996 78.9042 348.005 79.4473C348.105 85.1596 345.942 90.6777 341.993 94.7875C338.044 98.8973 332.632 101.262 326.948 101.362C326.407 101.371 325.872 101.353 325.341 101.323C327.366 110.364 335.431 116.732 344.651 116.572C344.914 116.567 345.173 116.553 345.433 116.539C353.908 108.143 358.583 96.6202 358.364 84.6632" fill="#AACEF2"/>
<path fill-rule="evenodd" clip-rule="evenodd" d="M348.153 79.4154C348.144 78.8748 348.108 78.3409 348.059 77.8099C341.587 76.6063 334.94 78.7156 330.366 83.4242C325.792 88.1328 323.903 94.8108 325.338 101.199C325.874 101.229 326.412 101.247 326.957 101.237C338.871 101.03 348.36 91.2602 348.153 79.4156" fill="white"/>
<path fill-rule="evenodd" clip-rule="evenodd" d="M421.528 149.086C421.452 144.763 418.97 140.838 415.084 138.896L392.15 127.433V127.431L384.184 123.45L384.86 161.94L392.753 161.803L415.245 161.412C418.833 161.35 421.691 158.408 421.629 154.841L421.528 149.086Z" fill="#AC7DFD"/>
<path fill-rule="evenodd" clip-rule="evenodd" d="M306.081 163.193L305.405 124.521L297.586 128.797L275.074 141.108C271.259 143.194 268.917 147.221 268.993 151.565L269.094 157.347C269.157 160.931 272.116 163.785 275.704 163.723L298.189 163.33L306.081 163.193Z" fill="#AC7DFD"/>
<path fill-rule="evenodd" clip-rule="evenodd" d="M349.73 147.984C349.688 145.613 347.707 143.724 345.305 143.765C342.903 143.807 340.99 145.763 341.032 148.135L341.605 180.551C341.659 182.914 343.637 184.789 346.03 184.748C348.423 184.707 350.333 182.764 350.303 180.401L349.73 147.984Z" fill="#FF90C6"/>
<path fill-rule="evenodd" clip-rule="evenodd" d="M299.369 569.633H99.1026C98.3377 567.198 98.1729 564.767 98.904 562.459C100.227 558.274 104.1 555.711 107.152 554.216C97.6929 543.197 99.6198 526.341 110.901 517.874C121.993 509.549 138.398 512.13 146.519 523.868C154.768 506.821 167.515 509.725 174.92 512.91C181.526 515.75 185.512 520.122 193.01 542.602C195.844 525.183 210.317 512.752 225.629 512.63C243.981 512.48 260.868 530.041 258.997 551.595C261.299 550.332 276.476 542.266 287.866 548.972C294.817 553.062 298.619 561.627 299.369 569.633Z" fill="white"/>
<path fill-rule="evenodd" clip-rule="evenodd" d="M665.578 541.786C664.718 541.207 663.818 540.687 662.886 540.231C650.637 534.252 635.232 540.363 631.835 541.786C633.792 527.745 625.087 514.743 612.714 511.438C598.598 507.669 582.664 517.313 579.537 533.356C574.089 514.282 555.024 503.031 537.358 506.942C522.132 510.318 510.498 524.394 509.805 541.224C507.758 540.437 487.958 533.128 477.186 542.91C470.131 549.313 469.632 560.621 471.3 569.635H674.775C675.735 568.366 676.502 566.962 677.051 565.469C677.335 564.666 677.564 563.844 677.737 563.01C676.312 554.497 672.357 546.36 665.578 541.786Z" fill="white"/>
<path d="M517.766 195.094C531.592 195.094 542.799 183.406 542.799 168.989C542.799 154.571 531.592 142.883 517.766 142.883C503.941 142.883 492.733 154.571 492.733 168.989C492.733 183.406 503.941 195.094 517.766 195.094Z" fill="#AC7DFD"/>
<path fill-rule="evenodd" clip-rule="evenodd" d="M517.766 189.873C512.405 189.868 507.282 187.655 503.605 183.756C495.784 175.463 495.784 162.515 503.605 154.222C507.279 150.318 512.403 148.104 517.766 148.104C523.128 148.104 528.252 150.318 531.926 154.222C539.747 162.515 539.747 175.463 531.926 183.756C528.249 187.655 523.127 189.868 517.766 189.873Z" fill="#FAFCFB"/>
<path fill-rule="evenodd" clip-rule="evenodd" d="M517.767 184.653C513.746 184.649 509.904 182.989 507.146 180.065C501.281 173.845 501.281 164.135 507.146 157.915C509.902 154.987 513.745 153.327 517.767 153.327C521.788 153.327 525.631 154.987 528.387 157.915C534.252 164.135 534.252 173.845 528.387 180.065C525.629 182.989 521.788 184.649 517.767 184.653Z" fill="#AC7DFD"/>
<path fill-rule="evenodd" clip-rule="evenodd" d="M517.767 179.43C515.086 179.427 512.525 178.321 510.687 176.371C506.777 172.225 506.777 165.752 510.687 161.606C512.524 159.654 515.086 158.548 517.766 158.548C520.447 158.548 523.009 159.654 524.845 161.606C528.757 165.752 528.757 172.225 524.845 176.371C523.007 178.321 520.447 179.427 517.767 179.43Z" fill="#FAFCFB"/>
<path fill-rule="evenodd" clip-rule="evenodd" d="M517.767 173.204C516.684 173.203 515.65 172.756 514.908 171.969C513.329 170.295 513.329 167.681 514.908 166.007C515.649 165.219 516.684 164.771 517.766 164.771C518.849 164.771 519.884 165.219 520.625 166.007C522.203 167.681 522.203 170.294 520.625 171.969C519.883 172.756 518.849 173.203 517.767 173.204Z" fill="#FF73B7"/>
<path fill-rule="evenodd" clip-rule="evenodd" d="M541.693 144.038C541.563 143.9 541.381 143.822 541.192 143.822C541.002 143.822 540.821 143.9 540.691 144.038L538.45 146.376L537.911 144.266L532.613 149.79L532.892 152.172L517.266 168.467C516.989 168.76 516.989 169.218 517.266 169.511C517.396 169.649 517.577 169.727 517.767 169.727C517.956 169.727 518.137 169.649 518.267 169.511L533.938 153.168L536.238 153.461L541.535 147.937L539.498 147.371L541.692 145.083C541.969 144.79 541.969 144.332 541.693 144.038Z" fill="#423565"/>
<path d="M592.631 90.9971H582.407V98.8738H592.631V90.9971Z" fill="#685696"/>
<path fill-rule="evenodd" clip-rule="evenodd" d="M598.271 77.0358C598.271 70.4156 592.766 65.1355 586.269 65.8999C581.568 66.4523 577.671 70.2898 576.914 75.1577C576.32 78.7329 577.446 82.3788 579.952 84.9981C581.5 86.554 582.38 88.651 582.407 90.8446V90.9964H592.631V90.897C592.64 88.7032 593.507 86.5999 595.048 85.037C597.128 82.8937 598.285 80.0214 598.271 77.0358Z" fill="#AC7DFD"/>
<path fill-rule="evenodd" clip-rule="evenodd" d="M583.913 75.9883C584.483 75.9883 584.752 76.469 584.991 76.8921C585.236 77.3272 585.407 77.5913 585.72 77.5913C586.032 77.5913 586.202 77.3272 586.447 76.8924C586.685 76.4687 586.955 75.9883 587.524 75.9883C588.092 75.9883 588.363 76.469 588.601 76.8924C588.846 77.3272 589.017 77.5913 589.328 77.5913C589.639 77.5913 589.809 77.3272 590.054 76.8924C590.293 76.4687 590.562 75.9883 591.131 75.9883C591.699 75.9883 591.968 76.469 592.206 76.8921C592.45 77.3272 592.621 77.5913 592.932 77.5913C593.043 77.5913 593.133 77.681 593.133 77.7916C593.133 77.9022 593.043 77.9919 592.932 77.9919C592.365 77.9919 592.095 77.5118 591.857 77.0884C591.613 76.6533 591.442 76.3892 591.131 76.3892C590.82 76.3892 590.649 76.6533 590.403 77.0888C590.166 77.5122 589.895 77.9919 589.328 77.9919C588.76 77.9919 588.49 77.5122 588.252 77.0888C588.007 76.6533 587.835 76.3892 587.524 76.3892C587.212 76.3892 587.041 76.6533 586.796 77.0888C586.558 77.5122 586.288 77.9919 585.72 77.9919C585.152 77.9919 584.88 77.5118 584.641 77.0884C584.396 76.6533 584.225 76.3892 583.912 76.3892C583.6 76.3892 583.429 76.6533 583.184 77.0884C582.945 77.5118 582.675 77.9919 582.106 77.9919C581.995 77.9919 581.905 77.9022 581.905 77.7916C581.905 77.681 581.995 77.5913 582.106 77.5913C582.418 77.5913 582.59 77.3272 582.835 76.8917C583.074 76.4669 583.344 75.9883 583.913 75.9883Z" fill="white"/>
<path fill-rule="evenodd" clip-rule="evenodd" d="M587.895 84.1475H587.144C586.463 84.1475 585.911 84.5912 585.911 85.1389V90.9968H589.128V85.1389C589.128 84.5912 588.576 84.1475 587.895 84.1475Z" fill="white"/>
<path fill-rule="evenodd" clip-rule="evenodd" d="M586.519 85.1343C586.43 85.134 586.347 85.0891 586.298 85.0146L581.682 77.9354C581.629 77.8563 581.622 77.7547 581.665 77.6695C581.707 77.5843 581.793 77.5287 581.888 77.5238C581.983 77.5189 582.073 77.5656 582.125 77.646L586.741 84.7252C586.794 84.8064 586.798 84.9104 586.752 84.9959C586.706 85.0814 586.616 85.1345 586.519 85.1343Z" fill="white"/>
<path fill-rule="evenodd" clip-rule="evenodd" d="M588.516 85.1333C588.419 85.1335 588.33 85.0804 588.283 84.9949C588.237 84.9094 588.241 84.8054 588.295 84.7242L592.911 77.645C592.962 77.5646 593.053 77.5179 593.148 77.5228C593.243 77.5277 593.328 77.5834 593.371 77.6686C593.413 77.7538 593.407 77.8553 593.354 77.9344L588.738 85.0125C588.689 85.0876 588.606 85.133 588.516 85.1333Z" fill="white"/>
<path fill-rule="evenodd" clip-rule="evenodd" d="M598.881 58.733C599.06 58.4458 599.068 58.0839 598.902 57.7889C598.736 57.4939 598.423 57.3128 598.084 57.3165C597.745 57.3201 597.436 57.5079 597.276 57.8064L594.757 62.1671C594.635 62.3787 594.602 62.6302 594.667 62.8657C594.731 63.1011 594.887 63.301 595.1 63.4209L595.116 63.4298C595.554 63.6808 596.112 63.5303 596.365 63.0934L598.881 58.733Z" fill="#AC7DFD"/>
<path fill-rule="evenodd" clip-rule="evenodd" d="M606.27 66.7962C606.695 66.5319 606.833 65.9789 606.583 65.5462C606.333 65.1135 605.784 64.957 605.343 65.1925L600.979 67.7103C600.543 67.962 600.393 68.5186 600.643 68.9555L600.652 68.9719C600.772 69.1846 600.972 69.3406 601.208 69.4051C601.443 69.4696 601.695 69.4374 601.907 69.3155L606.27 66.7962Z" fill="#AC7DFD"/>
<path fill-rule="evenodd" clip-rule="evenodd" d="M608.636 75.6175H603.572C603.068 75.6185 602.659 76.0278 602.66 76.532V76.5555C602.659 76.798 602.756 77.0307 602.927 77.2022C603.098 77.3738 603.331 77.4703 603.574 77.4704H608.638C609.15 77.4704 609.565 77.0555 609.565 76.5438C609.565 76.032 609.15 75.6172 608.638 75.6172L608.636 75.6175Z" fill="#AC7DFD"/>
<path fill-rule="evenodd" clip-rule="evenodd" d="M605.344 87.898C605.785 88.1335 606.333 87.977 606.583 87.5443C606.834 87.1116 606.695 86.5586 606.271 86.2943L601.907 83.7768C601.696 83.6547 601.444 83.6223 601.208 83.6867C600.972 83.7512 600.772 83.9072 600.652 84.12L600.643 84.1364C600.393 84.5733 600.544 85.1299 600.98 85.3816L605.344 87.898Z" fill="#AC7DFD"/>
<path fill-rule="evenodd" clip-rule="evenodd" d="M568.769 86.293C568.47 86.4524 568.282 86.7619 568.278 87.1003C568.275 87.4387 568.456 87.7521 568.751 87.918C569.046 88.0838 569.408 88.0757 569.696 87.8967L574.06 85.3788C574.496 85.1271 574.646 84.5706 574.396 84.1336L574.387 84.1172C574.267 83.9044 574.067 83.7483 573.831 83.6838C573.596 83.6193 573.344 83.6518 573.132 83.7741L568.769 86.293Z" fill="#AC7DFD"/>
<path fill-rule="evenodd" clip-rule="evenodd" d="M572.381 76.532C572.381 76.2896 572.285 76.057 572.114 75.8854C571.943 75.7138 571.71 75.6173 571.468 75.6172H566.403C565.891 75.6172 565.476 76.032 565.476 76.5438C565.476 77.0555 565.891 77.4704 566.403 77.4704H571.468C571.71 77.4703 571.943 77.3738 572.114 77.2022C572.285 77.0306 572.381 76.7979 572.381 76.5555V76.532Z" fill="#AC7DFD"/>
<path fill-rule="evenodd" clip-rule="evenodd" d="M569.696 65.191C569.409 65.012 569.047 65.0038 568.752 65.1697C568.456 65.3355 568.275 65.649 568.279 65.9874C568.283 66.3258 568.47 66.6352 568.769 66.7947L573.133 69.3154C573.345 69.4373 573.596 69.4696 573.832 69.4051C574.068 69.3406 574.268 69.1846 574.388 68.9718L574.397 68.9555C574.647 68.5185 574.496 67.9619 574.06 67.7102L569.696 65.191Z" fill="#AC7DFD"/>
<path fill-rule="evenodd" clip-rule="evenodd" d="M577.765 57.8064C577.605 57.5079 577.295 57.3201 576.957 57.3165C576.618 57.3128 576.304 57.4939 576.139 57.7889C575.973 58.0839 575.981 58.4458 576.16 58.733L578.679 63.0937C578.931 63.5306 579.489 63.6811 579.927 63.4302L579.944 63.4213C580.156 63.3013 580.312 63.1014 580.377 62.8659C580.441 62.6304 580.409 62.3789 580.287 62.1675L577.765 57.8064Z" fill="#AC7DFD"/>
<path fill-rule="evenodd" clip-rule="evenodd" d="M587.531 61.4169C587.774 61.4174 588.007 61.3214 588.179 61.1501C588.35 60.9789 588.447 60.7464 588.447 60.5038V55.4432C588.447 55.1122 588.27 54.8063 587.984 54.6407C587.697 54.4752 587.343 54.4752 587.056 54.6407C586.769 54.8063 586.593 55.1122 586.593 55.4432V60.5038C586.593 60.7463 586.689 60.9787 586.861 61.15C587.033 61.3212 587.266 61.4173 587.508 61.4169H587.531Z" fill="#AC7DFD"/>
<path d="M639.237 236.921H632.403V270.742H639.237V236.921Z" fill="#AC7DFD"/>
<path d="M630.435 248.05H623.601V270.742H630.435V248.05Z" fill="#AC7DFD"/>
<path d="M621.632 254.694H614.798V270.743H621.632V254.694Z" fill="#AC7DFD"/>
<path d="M612.829 260.245H605.995V270.741H612.829V260.245Z" fill="#AC7DFD"/>
<path d="M604.027 264.538H597.193V270.741H604.027V264.538Z" fill="#AC7DFD"/>
<path d="M616.129 240.062L618.147 238.751L617.612 236.513L615.218 236.257L614.153 234.79L614.653 232.437L612.691 231.234L610.818 232.744L609.026 232.459L607.714 230.442L605.474 230.977L605.218 233.368L603.75 234.433L601.397 233.934L600.192 235.894L601.703 237.766L601.418 239.556L599.4 240.867L599.935 243.105L602.328 243.361L603.394 244.829L602.895 247.181L604.856 248.385L606.73 246.874L608.521 247.159L609.833 249.176L612.073 248.641L612.329 246.25L613.797 245.185L616.151 245.684L617.356 243.724L615.845 241.851L616.129 240.062ZM611.693 243.834C610.064 245.015 607.884 245.099 606.169 244.047C604.454 242.995 603.542 241.014 603.858 239.029C604.175 237.043 605.657 235.443 607.614 234.975C609.571 234.507 611.617 235.263 612.799 236.89C614.412 239.113 613.917 242.222 611.693 243.834H611.693Z" fill="#AACEF2"/>
<path d="M612.517 240.059C612.655 237.991 611.09 236.203 609.021 236.065C606.952 235.927 605.163 237.492 605.025 239.559C604.886 241.627 606.452 243.415 608.521 243.553C610.59 243.691 612.379 242.127 612.517 240.059Z" fill="#9082B5"/>
<path fill-rule="evenodd" clip-rule="evenodd" d="M634.735 225.882C626.722 242.136 613.719 253.515 597.11 258.869V261.419C614.717 255.966 628.478 244.052 636.907 226.952L634.735 225.882Z" fill="#FF73B7"/>
<path fill-rule="evenodd" clip-rule="evenodd" d="M637.916 230.12L640.56 216.802L631.605 227.014L637.916 230.12Z" fill="#FF73B7"/>
<path fill-rule="evenodd" clip-rule="evenodd" d="M102.45 330.343L99.2997 330.162L98.0183 333.199L95.6706 334.017L92.7776 332.433L90.4238 334.532L91.6671 337.585L90.5858 339.821L87.4196 340.746L87.2388 343.894L90.2783 345.175L91.0964 347.52L89.5123 350.411L91.6121 352.764L94.6674 351.521L96.9056 352.602L97.8311 355.766L100.981 355.946L102.263 352.909L104.61 352.091L107.503 353.675L109.857 351.576L108.613 348.523L109.695 346.287L112.861 345.362L113.041 342.214L110.002 340.933L109.184 338.588L110.769 335.697L108.669 333.345L105.613 334.587L103.375 333.506L102.45 330.343Z" fill="#FF73B7"/>
<path fill-rule="evenodd" clip-rule="evenodd" d="M89.0642 338.434L87.8663 334.999L84.0618 334.976L82.1538 332.837L82.565 329.058L79.2879 327.476L76.5807 330.149L73.718 329.985L71.3347 327.021L67.8978 328.219L67.8739 332.02L65.7341 333.927L61.9517 333.516L60.3686 336.791L63.0434 339.496L62.879 342.357L59.9136 344.739L61.1115 348.173L64.916 348.197L66.824 350.335L66.4128 354.115L69.6899 355.697L72.3971 353.024L75.2594 353.188L77.6431 356.152L81.08 354.954L81.1039 351.153L83.2437 349.246L87.0257 349.657L88.6088 346.382L85.9341 343.677L86.0985 340.816L89.0642 338.434Z" fill="#AACEF2"/>
<path fill-rule="evenodd" clip-rule="evenodd" d="M66.6368 341.134C66.4545 344.307 68.203 347.278 71.0671 348.661C73.9312 350.043 77.3467 349.566 79.721 347.45C82.0953 345.335 82.9607 341.999 81.9138 338.998C80.8668 335.996 78.1136 333.921 74.9381 333.739C70.6023 333.49 66.8859 336.801 66.6368 341.134Z" fill="white"/>
<path fill-rule="evenodd" clip-rule="evenodd" d="M92.9211 342.641C92.7537 345.559 94.3615 348.29 96.9948 349.561C99.6282 350.832 102.768 350.392 104.951 348.448C107.134 346.503 107.93 343.435 106.967 340.676C106.004 337.916 103.473 336.008 100.553 335.841C96.5666 335.613 93.1499 338.657 92.9211 342.641Z" fill="white"/>
<path d="M93.8639 325.8C93.8818 323.022 91.8058 321.517 89.7983 320.062C89.6664 319.966 89.5376 319.871 89.406 319.777L89.4485 313.187C90.7851 313.482 91.0918 314.554 91.0861 315.479L91.084 315.841L93.8892 315.859V315.692C93.9103 312.44 91.6571 311.451 89.4599 311.255L89.4724 309.309L87.6992 309.298L87.6864 311.247C85.5109 311.431 83.2905 312.408 83.2702 315.624C83.252 318.4 85.328 319.906 87.3358 321.361C87.4321 321.433 87.5259 321.501 87.6211 321.571L87.5783 328.205C86.2149 327.908 85.8997 326.853 85.9061 325.944L85.9118 324.999L83.1044 324.98L83.0997 325.733C83.0791 328.97 85.3465 329.966 87.5655 330.168L87.5558 331.672L89.3294 331.683L89.339 330.179C91.5629 330.004 93.8432 329.04 93.8639 325.8ZM86.2944 315.447C86.2998 314.594 86.5797 313.624 87.6767 313.26L87.6443 318.32C86.8412 317.517 86.287 316.616 86.2944 315.447ZM89.3543 328.154L89.3875 322.995C90.2495 323.824 90.8518 324.753 90.844 325.974C90.839 326.833 90.5373 327.811 89.3561 328.154H89.3543Z" fill="#FF73B7"/>
<path fill-rule="evenodd" clip-rule="evenodd" d="M68.5631 341.245C68.4252 343.64 69.7446 345.882 71.906 346.926C74.0673 347.969 76.645 347.609 78.4369 346.013C80.2288 344.417 80.8821 341.899 80.092 339.634C79.3019 337.369 77.2242 335.802 74.8276 335.665C73.2564 335.575 71.7137 336.112 70.5388 337.159C69.364 338.205 68.6533 339.675 68.5631 341.245Z" fill="#FF90C6"/>
<path fill-rule="evenodd" clip-rule="evenodd" d="M94.7538 342.746C94.6287 344.923 95.828 346.961 97.7925 347.909C99.757 348.858 102.1 348.53 103.728 347.079C105.357 345.628 105.951 343.34 105.232 341.281C104.514 339.223 102.626 337.799 100.448 337.674C97.4738 337.504 94.9246 339.775 94.7538 342.746Z" fill="#9082B5"/>
<path d="M142.988 101.055V140.711H87.6493V101.055H142.988ZM145.163 98.8809H85.4746V142.883H145.162V98.8819L145.163 98.8809Z" fill="#9082B5"/>
<path fill-rule="evenodd" clip-rule="evenodd" d="M96.1179 134.165L95.0374 133.559L100.66 123.523L107.62 121.79L111.139 115.077L118.812 114.329L122.768 116.936L126.37 112.818L135.404 107.091L136.067 108.137L127.111 113.814L122.991 118.567L118.495 115.603L111.923 116.244L108.458 122.856L101.478 124.595L96.1179 134.165Z" fill="#FF73B7"/>
<path fill-rule="evenodd" clip-rule="evenodd" d="M95.9528 134.355L95.2039 133.369L102.146 128.095L109.477 127.179L114.199 120.634L120.038 121.172L122.713 124.708L129.653 119.124L135.537 117.164L135.929 118.338L130.152 120.262L122.499 126.477L119.38 122.354L114.789 121.931L110.163 128.34L102.626 129.281L95.9528 134.355Z" fill="#AC7DFD"/>
<path fill-rule="evenodd" clip-rule="evenodd" d="M132.696 134.382H95.0588V108.188H95.5774V133.864H132.696V134.382Z" fill="#423565"/>
<path fill-rule="evenodd" clip-rule="evenodd" d="M94.2314 108.431L95.3181 104.379L96.4048 108.431H94.2314Z" fill="#423565"/>
<path fill-rule="evenodd" clip-rule="evenodd" d="M132.544 135.159L136.414 134.122L132.544 133.086V135.159Z" fill="#423565"/>
</svg>
